<mxfile host="65bd71144e">
    <diagram id="T9L3WCTR1M4RKJtjfB0O" name="Page-1">
        <mxGraphModel dx="1194" dy="557" grid="1" gridSize="10" guides="1" tooltips="1" connect="1" arrows="1" fold="1" page="1" pageScale="1" pageWidth="827" pageHeight="1169" math="0" shadow="0">
            <root>
                <mxCell id="0"/>
                <mxCell id="1" parent="0"/>
                <mxCell id="2" value="" style="rounded=0;html=1;jettySize=auto;orthogonalLoop=1;fontSize=11;endArrow=block;endFill=0;endSize=8;strokeWidth=1;shadow=0;labelBackgroundColor=none;edgeStyle=orthogonalEdgeStyle;entryX=0.5;entryY=0;entryDx=0;entryDy=0;" parent="1" source="3" target="5" edge="1">
                    <mxGeometry relative="1" as="geometry"/>
                </mxCell>
                <mxCell id="3" value="INICIO" style="rounded=1;whiteSpace=wrap;html=1;fontSize=12;glass=0;strokeWidth=1;shadow=0;" parent="1" vertex="1">
                    <mxGeometry x="160" y="10" width="120" height="40" as="geometry"/>
                </mxCell>
                <mxCell id="4" value="" style="edgeStyle=orthogonalEdgeStyle;rounded=0;orthogonalLoop=1;jettySize=auto;html=1;" parent="1" source="5" target="7" edge="1">
                    <mxGeometry relative="1" as="geometry"/>
                </mxCell>
                <mxCell id="5" value="&quot;BEM-VINDO AO PAR OU IMPAR&quot;" style="rounded=0;whiteSpace=wrap;html=1;" parent="1" vertex="1">
                    <mxGeometry x="160" y="80" width="120" height="60" as="geometry"/>
                </mxCell>
                <mxCell id="6" value="" style="edgeStyle=orthogonalEdgeStyle;rounded=0;orthogonalLoop=1;jettySize=auto;html=1;" parent="1" source="7" target="9" edge="1">
                    <mxGeometry relative="1" as="geometry"/>
                </mxCell>
                <mxCell id="7" value="INFORME NOME JOGADOR1(PLAYER1)" style="rounded=0;whiteSpace=wrap;html=1;" parent="1" vertex="1">
                    <mxGeometry x="150" y="180" width="140" height="60" as="geometry"/>
                </mxCell>
                <mxCell id="8" value="" style="edgeStyle=orthogonalEdgeStyle;rounded=0;orthogonalLoop=1;jettySize=auto;html=1;entryX=0.5;entryY=0;entryDx=0;entryDy=0;" parent="1" source="9" target="12" edge="1">
                    <mxGeometry relative="1" as="geometry">
                        <mxPoint x="220" y="440" as="targetPoint"/>
                    </mxGeometry>
                </mxCell>
                <mxCell id="9" value="INFORME NOME JOGADOR2(PLAYER2)" style="rounded=0;whiteSpace=wrap;html=1;" parent="1" vertex="1">
                    <mxGeometry x="150" y="270" width="140" height="60" as="geometry"/>
                </mxCell>
                <mxCell id="10" value="OLÁ player1 você escolhe par ou impar(escolha1)&amp;nbsp;" style="rounded=0;whiteSpace=wrap;html=1;" parent="1" vertex="1">
                    <mxGeometry x="150" y="350" width="140" height="60" as="geometry"/>
                </mxCell>
                <mxCell id="11" value="" style="edgeStyle=orthogonalEdgeStyle;rounded=0;orthogonalLoop=1;jettySize=auto;html=1;" parent="1" source="12" target="14" edge="1">
                    <mxGeometry relative="1" as="geometry"/>
                </mxCell>
                <mxCell id="12" value="jogador1 escolha um numero(jn1)" style="rounded=0;whiteSpace=wrap;html=1;" parent="1" vertex="1">
                    <mxGeometry x="150" y="450" width="140" height="60" as="geometry"/>
                </mxCell>
                <mxCell id="13" value="" style="edgeStyle=orthogonalEdgeStyle;rounded=0;orthogonalLoop=1;jettySize=auto;html=1;" parent="1" source="14" target="16" edge="1">
                    <mxGeometry relative="1" as="geometry"/>
                </mxCell>
                <mxCell id="14" value="jogador2 escolha um numero(jn2)" style="rounded=0;whiteSpace=wrap;html=1;" parent="1" vertex="1">
                    <mxGeometry x="150" y="550" width="140" height="40" as="geometry"/>
                </mxCell>
                <mxCell id="15" value="" style="edgeStyle=orthogonalEdgeStyle;rounded=0;orthogonalLoop=1;jettySize=auto;html=1;entryX=0.5;entryY=0;entryDx=0;entryDy=0;" parent="1" source="16" target="19" edge="1">
                    <mxGeometry relative="1" as="geometry">
                        <mxPoint x="240" y="760" as="targetPoint"/>
                        <Array as="points">
                            <mxPoint x="220" y="761"/>
                            <mxPoint x="212" y="761"/>
                        </Array>
                    </mxGeometry>
                </mxCell>
                <mxCell id="16" value="resultado = (jn1+jn2)/2" style="rounded=0;whiteSpace=wrap;html=1;" parent="1" vertex="1">
                    <mxGeometry x="150" y="620" width="140" height="60" as="geometry"/>
                </mxCell>
                <mxCell id="17" value="" style="edgeStyle=orthogonalEdgeStyle;rounded=0;orthogonalLoop=1;jettySize=auto;html=1;" parent="1" source="19" target="21" edge="1">
                    <mxGeometry relative="1" as="geometry"/>
                </mxCell>
                <mxCell id="18" value="" style="edgeStyle=orthogonalEdgeStyle;rounded=0;orthogonalLoop=1;jettySize=auto;html=1;" parent="1" source="19" target="26" edge="1">
                    <mxGeometry relative="1" as="geometry"/>
                </mxCell>
                <mxCell id="19" value="resto = 0 e&lt;br&gt;escolha1 = par" style="rhombus;whiteSpace=wrap;html=1;rotation=-1;" parent="1" vertex="1">
                    <mxGeometry x="150.18" y="710.12" width="140" height="120" as="geometry"/>
                </mxCell>
                <mxCell id="20" style="edgeStyle=orthogonalEdgeStyle;rounded=0;orthogonalLoop=1;jettySize=auto;html=1;entryX=0.5;entryY=0;entryDx=0;entryDy=0;" parent="1" source="21" target="23" edge="1">
                    <mxGeometry relative="1" as="geometry"/>
                </mxCell>
                <mxCell id="21" value="parabens player1 vc ganhou 0 reais !!!" style="whiteSpace=wrap;html=1;" parent="1" vertex="1">
                    <mxGeometry x="490" y="759.6" width="120" height="60" as="geometry"/>
                </mxCell>
                <mxCell id="22" value="sim" style="text;html=1;align=center;verticalAlign=middle;resizable=0;points=[];autosize=1;strokeColor=none;fillColor=none;" parent="1" vertex="1">
                    <mxGeometry x="450" y="729.6" width="40" height="30" as="geometry"/>
                </mxCell>
                <mxCell id="23" value="FIM" style="rounded=1;whiteSpace=wrap;html=1;" parent="1" vertex="1">
                    <mxGeometry x="490" y="880" width="120" height="60" as="geometry"/>
                </mxCell>
                <mxCell id="24" value="não" style="text;html=1;align=center;verticalAlign=middle;resizable=0;points=[];autosize=1;strokeColor=none;fillColor=none;" parent="1" vertex="1">
                    <mxGeometry x="410" y="800" width="40" height="30" as="geometry"/>
                </mxCell>
                <mxCell id="25" value="" style="edgeStyle=orthogonalEdgeStyle;rounded=0;orthogonalLoop=1;jettySize=auto;html=1;" parent="1" source="26" target="23" edge="1">
                    <mxGeometry relative="1" as="geometry"/>
                </mxCell>
                <mxCell id="26" value="parabens player2 vc ganhou 0 reais !!!" style="whiteSpace=wrap;html=1;" parent="1" vertex="1">
                    <mxGeometry x="160.18" y="890" width="120" height="60" as="geometry"/>
                </mxCell>
                <mxCell id="31" style="edgeStyle=none;html=1;" parent="1" source="27" target="29" edge="1">
                    <mxGeometry relative="1" as="geometry"/>
                </mxCell>
                <mxCell id="27" value="" style="shape=image;imageAspect=0;aspect=fixed;verticalLabelPosition=bottom;verticalAlign=top;image=data:image/jpeg,/9j/4AAQSkZJRgABAQAAAQABAAD/2wBDAAYEBQYFBAYGBQYHBwYIChAKCgkJChQODwwQFxQYGBcUFhYaHSUfGhsjHBYWICwgIyYnKSopGR8tMC0oMCUoKSj/2wBDAQcHBwoIChMKChMoGhYaKCgoKCgoKCgoKCgoKCgoKCgoKCgoKCgoKCgoKCgoKCgoKCgoKCgoKCgoKCgoKCgoKCj/wgARCAI0AjQDASIAAhEBAxEB/8QAGwAAAgMBAQEAAAAAAAAAAAAAAAECAwQFBgf/xAAZAQEBAQEBAQAAAAAAAAAAAAAAAQIDBAX/2gAMAwEAAhADEAAAAfqgAAAAAAAAAAAAAACKyZRXGmmiuW+mutZwSlm60WKvzcelPFZ8z3h8+3y+yflPSbaAYmMbRVmjHOzddikm4zW1aRlYAAAAAAAAAAAAAAAAAAAAAAAAAAACGJgiseUy5t9dUFshElBA0EHFo4eGPUjghXsojoShfmc7k92nZ+5+d5O76k+L2elmICUQslVI0aMt+ponSkuMs00idAAAAAAAAAAAAAAAAAAAAAAAggqYvVcFuzwoh0pTTQAADQHmux8yxPRYLZee26MGjJ9Lh9OJ47rCvN0uHUKdMNsf0z5h6bvPYuL3ZkWNxLLbslpvojFI6Mdq9N0FmkhOwAAAAAAAAAAAAAAAAAAAArspM1EqM6vhSK4pQ0uYdQ8fZJ6x+X3y9gptrzXmraOU0S2VcbXVsrLqehzoNl044mrqc2q+dryambQzo+kz8L0uj0/A42WOg/G5dT6F6D5X7NfYOuWrZZGZe807Nl2PRZcBYAAAAAAAAAAAAAAAAAAFN1Rho25M2qMotCair5z9LR8fz/YPA5mP0HhFiet5lMIr7vm4V6uzyFseiXF6GXf5NHLX11Pi92nq4+TnlsJBq08rGevw+YzWbubp623O32fQbaeslqtxkadGO2gI2bJ57U1yov1AAAAAAAAAAAAAAAAAAArshGfLpzy5oyU0kAAQUXo+ccz6d8+5zg4vTUpzY59m27P0MUuero+ixPL8r6J5cWDrwtt52zfHE2dbl5cbNr7HScrpa54tan6OtnZDrWmKpILJ0Tssi4lurDYm23nyre8M7Nss07LyLGAAAAAAAAAAAAAQlEy5dmDNrTU0gUMQMTFw+44+Y4/rGOPlWj6N84knbr5uFV27sRwbfSZMuBrnzdOtpry5Pg68u1npfPe16sU/Wi8nrBSYAAAhRAScBLJUyJpRLdGbVVtkLLm6yqzUkAAAAAAAAAAAAgK55hY7aMaqTioDhDBMYmIEwj4f3VdfIqo3Yhsx6MTTGJlms15qr0ECvDo4fRb7rH7zTF2vNQX1ADQNIIAQAhqAyNkLESkx357tS7RXrshamjAoAAAAAAAAACGaeGXXXlUpU4ZrcQYgYgcoSGhDaYBUeK+cfR/n9zu7XDv5utbwll2eLVDRV7lpk6un3Zqhl2S6s18jg+jzcLT1D876G1pqSLQo0K2mKcWk4t0aoabJaqZWWOM7AAAAAAAAAACMkZOf0sWbmcjOoRnEQmIErExiEYIlKuY/KdrgJf5L0emTwPV4nYw5p1KI6/B73lYt6nb9H0sMUdq16YhbPn6bNEaHLZy+1Wm85HWtBFoASE0biyVlc61XU22WW0aLJMLAAAAAAAAAAAAhk2wlwV7aJcdd1cVDjKxNQABA2mNqSeV6XL1SRlr5EeQx/Qvnlm6zjdSJ+12SI5XuWCYtUslhw+l4z19nWlm0y2W5bTJ2+VZXRQWpgjaBtBK+i+zXdXo1CbLAAAAAAAAAAAAIyoLK89Mss5VLKKM2KkhA1Q0CfATvvz/dLKruIc3L1vLSeyw7c8URr5lcr6CSFlq6cRi4qgDDk6PkrK/RcHum0zdKXBPTWiywsr0wF0AA1MQNHfRI6F2K/WdrrssAKAAAAAAAAAAVN1MuKjVllrhOEqIkScWDTENC8X7XwcmynkY+T63weHf2T8f6zyafR41cOVejqC/HdrlnCNBor5LTqmKay8l6vk2cX0nhvYWa+lz7s3id75776vJ7sGzU9zq4PemkwVyiDQISizRr5+izffh1alonYAAAAAAAAAIhU8Us8k682tCVMIAAaYOLDndFHyPT0PNYzr6nL7NtOXLus63X877K3PCnflOKgtpmRozXSOTV3UcA6tNniOt1OLZ6LXlnL849XdVZVT2fQmH0HLnNdEC0AABBgsrap2adfP2azslXOxgAAAAAAACcTLh24MaqRGUAUBDEDaYhoaFJ47y3e8xnPRwWc8s1Y+jXU9dzaraYdLQnCfelLxNnQmU3NqzHqM/O6eJOPlo6WHQq4PV6O7r8bOPcS5/SIY9vPt7Uou1pgDaRaRJxdXbcezWddkZWAAAAAAAABF0RmyX5c6hGUZoAAAQA3FgAFN3BT59ze15nWejbydGW3t+W9+dyjldfN0BNU24AAAARVPI6Xj5OXLRjk3d3gdWu1qlG2V+fUaedfVXYnCV1IBJCBJsldXdpo1Zr2b2nqAAAAAAAAEcunLLjotpxpJoQ0AJROJJJjaB+W9RQny7j+jwaz56PWpqn3vT5ebq5/S3Zef76qXpvLnjomTUS5XT84HoODx5N/Cu7Jx7aLMzmb8U+r3scWjN1ZTLWv0HlvYWuUZjAIskIaLLs+itWjK7Nzz3XMgKAAAAAAiRxasGbTXOGdQU4AIVpoEwTAE5EWxMfnfXuvNehsZHyfrfnUvTr8XdNe20eZ6LHXo5kUrrnCujmBeJt5C5q+hzKemelq4dUWaef3tz1Fk3jWR7/AEmlF6crlFkotBKLGgLJVurFB1ft5uxne4T1AAAABBVZSUY9OfOqk1mqM4EQag0ApCchIjQAEhIbgEvm30T5Hn0z0cvXz+gc3tcPfm6kq6U63PhZOg74c/Use2u451HZ0dfm8CVp18r9fzO5hzfeee67XRGKDAaYCAEI2mOUWTsr0VPXRoubmnqAAACrlTLZVHPCzSrmmkBGUYQ0ohDlFjlGSRGgElaEMh5Gb6vzrUc/o14dlKYc3tauvzuQruRn0dzRxfcpxOV7zjb40dfk+mzztz7M8nG07ZVVd5b15zevDlW+paasTATBNAmA00YmWX0WVqvoss0GRWbpY9CWCKhRblleW6mWquyuVSCFGcFISQJxJICbixoBJoVWTxGe1mO3Hx+m8dGnr4n7yHU14hSIr896VJ8j0/Q/CbnsYfNvU6elzX9BeN6DP5nL1hWsX5j9F8lXvP0Ti9bl5vrDPpukSSgxlDCIJW0xAE7891l5VKxq1Bsz6LLhiQy7M65s2vLLVGUZRxlCQlSYRUgGmNCGER8nrUr83knx+pjwfT/I9vm8T3Vtk46ZYoy9EySXSVRL6Cw8L5j6/wCS1nj+2+ed/Tv+f2cjl7n6jzPSWEn6Pfh8P6jleO1PsnR53RztuLGJgAkQFBoGSQtrsqV9F1mm7NqsUpOwACm5GSjbnlw06M+dJohDSoAEwAZEaAAEByNuolx+C+k+VuPI1/Q608FH38T5zP6Ajw9np9R5KXpapeNp0zTzUvQc6t/F03Trl7PNmzd6XmduZr+VfYuLp1OkDRJNAEAAIStpjcZJKyudTcSr9eLVc6nGVgAABHNozRiz6qM7rTjAmlQAADItWDSJJCBiGC896LzMnXr1qTlw2ULWSSUyuzmS3Jy9PR3cToRrLaopnNEpx1ENcNBPi9Tn123GV0MSAAAlEA0A51zSbi6s0UarLbnOwYWAAAEcG3DLlrlVnTgEqGgTQ0wiBExAxFDTBpkfOdzmzPVGoyc3pQMmiwWDeIz+S61+8x3c30OXP6kNE1Qr0LTTNNcZIfK63Cr0UlK6EAmkMASaABScJszlFk9GezU6E8ErOhLPfYwATRRh24s6y12RzYDFSYRAGACYJpiYxNA2mcjdyupnNqdZRAFAIhxeny7Of6DD2tuTdt4sd5higFABrnm0EuB3+UnbSeqAlQ0DAEwQwUlJG0EpQnTtp0Juupu1lgUJxjPh04c6qRGVgKhxBMBNijKIAxtMBMGB5jqcPoTPYrZGYlFQCOfRKNnP9n4n32lfz76N8+PVuMsUEDAo05Mx2c82kNvL6mqJggFAYhokm0UgAGKcbKNFUqv149dzaBYV2UnPy6s2N1DjAAqAGAJgJNCkmDTBkhAJ4zpZsbPqLYTzaqb6FEw87df5Wzt+5+d/Qan5X1XOtx3edpzOhE7cOuxFcrrTgd3NlXd0+X06YnSJRGAqAG00Y0NxY5QdWTpsTTryatS4rLJZNHOza6ZV50RlEAFQwYAJhFSQADaByg0Y4HmqrutJj38XqRZUCgEGHdy7OT7rwH0HSWbT55fOdmrtTLGTU9OXQkiQU0bIryu75r0ug4tZIYgQxA3FowQ0Ik4BZbnsrdbjlZaQDfh3ZbMVWynOsynCGmlGmAAAAmyIwQ0DSJU2yTyvoPH+zkwUdDmRsIyUBGDn6opj9v4n2uhm0tfCen4PbksESucA12Y9CWIZwO/mxavZYA0DQKhgNNGmgTBJuozGWTqkaRB0M+unWclGmjNyxsrlBAwaxGhiBuMhptIKcRNgmYrfA/Q/D+ymZZ9OfJAKJhjzdXKcn2PhvcajabVfk/Y+YTplPGk778f246koSNMEFmHnbLe+4ypKSIjQDFQ0jaYgCQp0E5VUOBcRDuwmtYyZ+jnl59eyjNzKcFYEqTBJoJRkScZIRmiIwXnvQ+YqjveRMz2FXm9Edp57lZkwHborDge88X7TUAGny+rxE8L2ulRJ1J+T7kdSRNYzfBTo87r8uvUTi7ZJhAlEGmogRgCYxThOpTgqKyMWEQ9EBvCjNFNG2MvMo6mbNwR1Vy0xsjUUyBpqThNAGKM+NWSrw3QZ9tHFTi6YWVlHRgFfO6XKqrq8/DXd9Rl1KNMPJeh+c1qejuZl1ucjfLmM6PNaXlbuJo1Pfjawk1SUlESQRMW4Hi4h6hZMZ1rOF2yUTPVxORAuDtgbwAAmFVemBkr2Sl5lfVxRiVXOl6q4UZe/LzVB62rw3As9t5nlYE6ZxPRRyvT+f5de+v8ADTj2kfEbjvcXl4dNX1X5T3T6xH5ZdNfS38ulJ7zyWKdd6vm8qTtz8pzq+k87xfWjbVgwHvrvFe5t9fLz1cvpF5yZ6F+e2m7i4fSanG73iPcRDxfuMJw6fYpfK9+3BXV4HW8anudfn/SIEw3gagAAAAAACYQ816fzvPXF8/6XHx153iewzWeQXslp4un25qeGj6pV49exrjhbtGGMWXrrU4tfeVcJ9lnGl1spnnqZV3+FGO3q4Febdgdm51On5bXLKqUU0dnzule7Xl6WLDTbKWMnruceDd2NzFVi7223k5eQerPX+SOfshvTuef519fQoeU9FGkmFwFAAAAAAAACrCKaQxcHKDntMMXPANw5AWQqCDlhLWAZYhVkgS2IWRgEQ0ASgFs+cFYUG5q1hlGwM3X2wgsCun2w7Y855wK6n1cD5l68D5H9NCPTcwK7AETQVYAf/8QALhAAAgIBAwIGAgEEAwEAAAAAAQIAAwQFERIQExQgISIwQCMxBhUkM0E0NVAy/9oACAEBAAEFAvrEzlCYWhPXeb/MDAeg/wDLJm8LQtN4x8xIAt1Tdv6hnOA+YIMnPtIyc5ZXq4U0213L5wZvOUB6D/xyZvCZvD59SzRiK7W5Rv3Sta7oA9xWr0YPWvdrthqFb4Wp21Gt1sT4BBB03m//AIZMYwmbzfz5epBJXxYdwFrLUZO6rytzWtWSu914Ws1B1NJQFgRVa9FmnZy5Ym/lEEB6EzlAf/B3m8JjH4dVytorIiIjccNAIUUvkAJUi7TLprauleddrPXPFIyBe7K1CFmeq2i0X0ebeAzeNN/VT95jOU3hM5QmH4My7w+KgsuYcUina+i7iVsHdFwfJryazMl+8EZQXYBVrW5iXqlpBDtvP4/afgE5wnosE3gP2mjGbzlC03+LXm/tOapbZ7q8gMItFcya+KUUJxuoqAxge3sZkO+4dSI21ZIG9NhxMpGDpCQBkatRW3itSsbnn7VZ2XRMTLqyq+om/QH7TxvPkZtFEOo5jRc7Nn9SuQ16livFsRumtZHcza6eCj1l27Y9P6yj+PG9a8n8jrsB6bkel2OuwsmQwjJ+LtGYXjqUL5xltJsGVmVYofLvtYWXOaxkctOwslMvoJt0EEX7LwiHy2AmvwOoVi9MithdkUynU4WreW0U73qtYwRvd3Nj3ONtrzEfZdRP4MdvwVe7M5bSq9Fgu7iE+y/3W1gi0P7B/wAem3ZL8xa5dmWXkJGq2lNLb4GCmIvVOhgg6D7DQiN576a8irMwzjFqjFe1J/UAUucOlDcHa5yz9/ZMlwaslBflXjw9WWgp8b22d7cg1Yyy6uzHlGUdgfRW9hIjZfGeKseIhZnrKWIqolKM9uJipiVeQGb9RBB9hoY/wXVramfiNjuUDJdj8axyrlbh4hNcuGQsqVrRfjbSikvLcUbLV7kr9j1cbUQtH7dkWphGfipLQJual9Ur2jpubB2hpuH4WvzCHoDAZvOU5Teb/UMMf4cukX49W8f/AOslF4IpAG6PblG8I3uvsD2YxXjkWIsYBr29YEnokx6uKFAJkH8dacilCgLSJx3TuJWum4bcvNvAZv1E3gacoDN4D9Rox+LO09Mh8jnjMbKGltiNOAeCuxZ22A4jIgryKYuJffLMBVTn6LjyqngSN5Z+7mLNWvbCaVkNWuk2RdGWYmn4+N8u83m8Bg6CD6biH43UOvhaN8zDryMYN2rQRvc/dsTZVqM7o3Lch7LFWx8Vu57XyQGvs5RV9cfJSvUk1ak2fSWCCCD6bRvm/kWIZUxalh2p3LTK7L998nntkhFa0pWxMXlTGXlCu0vt4wLvXp+nk4WkWl8Y/RHQQQfSYwtCYflsQWJfQ2DmEhiq7txM4HYVkwAKwUb8htvLrQoO7nRsHudLMCq+6mxsLM+gIIn0TC05QmH6H8mFT1h2ExrvRPcvEzf3FllmQOTXkzuMYELzT8M5V9YCox52zJoTIqx8psQq4cfMIIn0XMJm83h+exxXXg1eIrdOFiVchtdTFyW5PlNxSt8g5NHaeulXW2oIMDFbJNSLUlt3E0rwTo6h1Onmp6M9kt+QQCL0HzmPG+lqxfJswXFmLrtHC+lvRHDSlQLLkHcxhsuoHfISzt0YOn2ZTIi1pZaxspqFU3nKcozhFrs7gyKUvrxchsRvjX9jqPoMIwm30MzLXGXTlcnfsajqGP4nGoPFx7S1YbJQc8jmFFnK6/A00VgkIvcfJiIta9Es52QgGIiJN5Yi2JgFlHxLB1H0DGWcYRD8w3v1KtOCZtPeoxre9RrNHYyaryQG2RHFNddd2c2Lh1YyWWLWBW15/wBTls+/ph5S149FxNYO4gPRd01P4liibTb6RhjQ/KJg/vGu7x/3j/hysvGryqsrFsxrDeeGDiWZr11rUjsEWqol+uQeMrLdqgdzKlP66Ay6sWjDvNvxJBF+jvN4xjGE/Na4rrwt+zpx45Myq+5Xj395czs+H07TfEFFCBmVFrDWP5Mwb42Df38YL2tRiMFj3KpOUoKZlDS6lbhhG1NS+ARZvF+i05QtCfjy85qsivU6iK2WxZrH/AiWGrVhA29t6cXrqbPtUbB2WtEU5LeW0jhpzdnO1LYZ8rG7RWDEpXbMO1GfItUfEIIIp+g0bofj1HY6kiha8S/w+ZNXb+3yuQmVZ3stf1xHJmOfcqgC21aUWpr2367zfpYOS5q9u7VTu8U7Nv6aNdzKeludZ2NXyGLV4z9zG+ARTBFP0DGh+TWt6c9Mj2/5rNNzzTaGOTn5x40YCd3MoPpm3vk20UpRVfd2pVTsel1gqTx9c8XQYHVpvN5lpyS3fjityx6xu2Y3DFoZqcywhMvWqeF+kN3r9IJXH+EQGKYvzGbx4fkzsdcnGrrUhrQoOxNTX0JdkWXSrlhWX5LUJhYwxqrre0tNfE7+QjePRW0fBpJ8I6T+6Sd/0zk5HSbOeKDsbB3McEhtTDWjWG2p0StnybfwZPwiCAxDB8rxjN4fl1dBTnFjvUG5Y5VEts/MQqUL7skzHPdboWAndE7qzlvN+rfuXLQFwSi2r+2Yk5GmK8q02ziulIz11rUtqdyvT7Tdh/EIkHyvGm/za2P7sENLfdCvBcU7zaY/u1Kw+zxlVVficl5wyXng3MGFtK6eEUbQdXmU/ax8fHS1b6jQ1Vi2r3t2WoGKAIOn+9O9F+IRIPkMsjQ/NrtoOZvsEfdch+UxPRrW2mnY/Yp1FO4KsaupeM2m02m026NUS6jYPL6u9TTkmuyy7lKN+5blU44Oou0pyK2NGRUehmD/AMr4RAIgg+QxzD81r9uu8sagQ04HYINuPA6QnczrX7aU1EE/E8uyeLkHcEy4b144Rq1rg9IVV1xy6n/VK7ap8AirFEHysY/z60/DT9RHBf1A5EGQQPENNN3qw7MxRlV3pZ8eQ3CqslUsq/IWKmpg00pweoiH1rcE4u9mX8AgixfleN8/8iQth5Y99i9aK+b6PzrGbWGazC9arMik0ZCW+bKvtDVZlyxXV0zczu1fkWqhQwyKfSo7TSiLlqbnU1gVz6Ss/k1C3tY9FQop+AQQCL8hjxvnvqF9J/HLMYg2VqgoosyLNM0zwk0ndplz/ZnBeSmXZVdTJcr9cqzw+ffatluQ7K1BHjHTIeWAWWBfTJ3mjEDUcVyKrGVg59mmt3KcQeO1D4knKc4Gg+Jo8P0MjGqyFOhpKNGxaylaVhhyXDXw9eU1RQ5tEW6t4OltNdss091i35GPK88NNQ2yqq7dgwWypd1hz7FFZLLY3syLeR0sf3oHoi7tqTdqjCw7bcaqtKa/hHTebxWin4mjQ/V/kKsc7baJ2OOP2WHrNnjNeAMm5J/UrARlYlkbIxKpkWp3zlHhX+2AIFjCPYWnHYaVX+Tj7fEUpMPFezI+DfziJB8LQ/W1Bu5qVj8Qq8Vsr5Q2XA1hyg1GxS2W7LvaZxsaCpFh9QaYyuIysItW44hYtTWvUK8dLi7WV011fQEVYF+FoYfqu3BBdvHbkqZCmMZafyY/+LJrGyqyAWiHqWURS1htwr2o93FF5lH2FGNscuvvY+nW9/A+dRBF85M3hjn62q5VVWKO49QUKtlMFrJGPJkYBbG5TfYYaqKbdPupxvy96vSrWlWm41c4qix8DHd0xaEi8RAJn7ph6dWKsH51MEE3m/kPQzlG+oWAGXqvKEe7eE7Re5ccfSBxt0pCbtNdBxauJb3TVUmRm03Bjn186a7crAsx768hYw6bbwZJXVVGy7bzRnNbfMIIs3hMDQNAejTeND9S2xakzct81wAoMe3aY+M1zY1C1rCN5wWZmArDIx3qOLn20U1ZOPmuhZpVQbLDj13HHznQ+jDjHX2sSxxLxdRLj4fU/wBfMIJvOXVYvR4YejfSy8urFW+6zLf9S2xVjWM8x6SzYeN2l8t+OtozsA1QErMPUeMVWartrk5V3b1DMqtsxZRfXel5ITT6RbiYGV4O1WBGrJzwMdueP8w6ATjAsAi9Ghhh+lqWV4TH3LsYXZ7L6WryK6mtsxcYVDfz2VhxqGDxhBE07Ptw2qya6dIyKilOoWC2+pnx7LMlLcLQ/wDFqWEGGBqDYsyrUbTtNO+n/MOiwQCcYB0MaGN9K1Ftretsa6qqzKfHxqsDHwscOoWtX7g35jdreLCwRW3Ab3M4ADbzeMAwz8LaBAGxPezZb0ise1zsBV29J0lgEPrM7C3iWvVXpn/XfOIIsHlIhEIh+ln4QyjjUJj1ZVZtx8nEtrHg7CvgbIMC+Ph2iGh1gbISDIydvE5U8bkLBnXBv6lZsNUQrkvUZi5Kq3jsa5GNddmN2rMnLyabcfTk2Wcd4qbrptb1YPzAdN4pinzERo0P1NWxk7fDiu3Uqs7aSqlRZ2KzDi1GHDqiYiMvg1ngRLMAhkxeROnrP6eNhgkHFx+MVYq+ugV1jF+cdRFg8zxofqZn5dQ2hWHyODtzXgcyiJfW4Qk+Rk3in06CIIP3pA4r9ACBYqzj5jGMMP1MH8uRtDGE2m3XJoFydisS5a6XWu2qVXgkjrtBAIFgiN78P25vyjqIhg85jwzeb/CPhP60cf23Rp272i0bTjNujepyeefl4D9zFYBhW7VTbebTaARYIzbGY/8A23yjyLA05eZo8b6l540aWvHBhjeWx5lWFm/jVY8RUnh9Rq2K9mD0E26CCcF5RPbr/wBEGcoGi+V40P1NTP8AaoOCQxvIf1a3brWrjVoCAYesL28mr0fzL1zUKZx9D9JYnleND9TJPPU1PrG8tx2Fic5afx6QvDTNXr7mnYL9ynzKeupf8TfcfIPMkU+VjHMP1Mg8daZd+jeW0+6Zx2w8ZeGNYvJNOPbuHnU9MheePhNzw/pLN/Vf10MeN9XWfxZ1vIXg7gw+R/8A6md/j6ZyeH1pf15g7IUO8s/xaZ/1/wBAdBBF6tHMP1f5Ov4MS024tbBhG8lmRUliOrzKh/c1+v8ABQ3OonYW5wlFV9tkd1QK3IsvIJa+Ncx/Fpn/AF/0B0WCL1aP9bXxyqwn7GaOjeTJxktl9XhntcnCX1WagncwdOvCYF9j2TGxvdB6y6vnVXT2ztLa1dEV68fS/wDr/pCCCbwmM0c/WuPf1fUMcsuLb3axD5WQLVqH/Dq/xTJIGNp3txMSpT1XofSD1DCEbzRyVxvpCLOU3lkaH6rniumKWVhNuxdv5srIVBl9zwoHFZrhI0/HUGoeg6CA+TaLyo1n6Qm836PGEI+renco0e0nH2l6c1pbdfJdbsK02a/3XH9zJqF+Pppbsj9dQYD5NY9uMrh1+iIIOjwwww/UFvZ/kUaWqwceRx+SVA2av1zq2wMhGDp5AYG65Ffeo0nkMX6YgjQwww/Uz/dkb7hvMavVl4nRffn9bEWyvT+VF/lEBl1y0oG5LR7NT+qYYY0P08yztY2bV2tKr/xGHzXD00w9nWPJqymu+21a5bngRc261qar2gG3U/qv+wvxvy6l9YxhGhh+lrG+2pbXAfBb/wDNyhc//fXUl54VRfIlGnqsTZAGB6euyEkTKoXIp0Fin0B1PlIhSFYRCPo52R4k+CyK5vnVlcvKEXPTdbA03lvKd+1TTctsuMKd7N/Z66ta1eJj0rjVX5ddEW/IyZiY7VwdfEFLQQYPZrPzjqfORCsZYR8+r5HbWnji1b7iV+5bK91pr4neW2FFe/eDKp5Ie6dEHI+TXrfXOzTMTA5EegB67zMxxfXgZJmZ6XH9/NvN/jYRlhWEQj479QoqbPybMu7TNR7MK7QZamdxNhfUYPXo7BR4qx52+TZNNPLGxq8Wvrl3rjY9ruGwsXtRW5LDYqTxVc71k71s7ts1HcNdkqX/AN+Xbol/LLmTd2KhmZt744uFeZmeHajJyGfpTclx2nGcfOZtCJxhWFZtNptNup9IbaxNWttdK7nNFlYsl+LUmLRfbjHHyqciOiVzcGdqneyupEeumuXap6Nk32TSMCrHp28mprW2Bp1I4X8WXxC7PkqSuTgVz+pYqi7WaxLdSy4uq5SGvUcfJq0DEoOD5dpbYlNderYrtkkJrEEzsrDa3Tc+7JpyGsxdSOs1zGuGRV+hoP8A1tTpYo+HabTaFZee2viJfqSVH+r1GHVkn9VWNrdKTJ1uq2s5m5bNaDKKxrAxxbKSuYFgU2zGCbtQd0tvpNmVk8bjbkE1kSsqJ/V8yf1XKMXUMqHOy4mbl75+ZfdhV56LU/iWXi+QMioJG9JSp2NNi15NaIAS0OLuNBs20+zUFpJ1iif1bH2Oq42yavjbjUsVpq2RS7tfjZNedjvgvYVVto+VQlnTJyBjU5uopjsliZeKteemnfx6k16OB8+U9ncs/T+4uqcbUG/aM7DGeEYxsVxPDtDRtCs2lNrUlsobE8WLmMTPXp69AT03MRzyzLLBFOTbH49vnspYtMc/2p1NuxevHHrZVY5ANtWorRa2YXbxMF6xWDdf3PD9s6Xn3eI1VDmWabqVeWdHx6shRqDNMvUGSnW87Hv0r+POrLTg00ZGbvqeYFG202+bNX3+sso5xsZp4KDF2nZYEjaMoMNE8NvPBVzwqCPhiHDM8HPDMJ29p21narnYSHGnZIISMhE4mMG2GSwDXs84+vuWBip8QYr8mcAkIIMcSpOMrQHqIlDscfCvzswaFYk1NmxBp6ZvgtERNRwmXLxLq6Uor/k6I2nZOLT/AEHR8rCx9K1TUszImDk5GHjrrNiTGyK8urb5ioadiuNi1GPQgB/e02jIsFSy2lArDaf66XWMH5uYWaNvvuYogUTtgTgN+Ah6cBOA27aluyksE2gEVAYK122G0oGz9FG5rUCYSgt/JN8G0/yPP4abV495/G1Hj9Yxq78Vtaz1mj4tZx+CcK9Kwa3/AN/72n66f//EACURAAEEAAUFAQEBAAAAAAAAAAEAAgMRBCExQFAQEiAwYDITIv/aAAgBAwEBPwH118xXLUq8rV8hSr5OuDHylfPjeH3nhDw4b3GkYnN8ACUQRrvsMQHWV3tcc1iI26hOw3+AQmwRj9IRxhSCM6qZsY/PUblkZeclHhQ3NymdGAjIUMWdCsRP36L+zgi5x3kMBkTGMhFlT4zuyau69etdQjluRqhM1jLClldIel+WEj7zmsYwN03V5UiqVeUcrmaJ7y/Xdn7I8GNmNiEUNiNwPYNiOEHDHdWr8huh1pUqVKulb0eI9p9X/8QAIxEAAgIBBAIDAQEAAAAAAAAAAAECEUAQEiAwITEDQVATUf/aAAgBAgEBPwHvbN6N6E/wJTocr1UqIzvOk/B7KHotIPKstafI9PNn3wjJI/ojdfo8ixmOH+Cixxs/mbHYvjbP5ofx6bLF8aXs3V6FkS8CnpZKTRGTNw5Cdm6htsjHnZeFtQ0IlJo3s9lCFHOaoZaLKIxLz2jYJLS8V9ciyKyXzens2/hob4LKZFU9ELzyQ8qvItH1XjtEUffR5vSuhYFG0rnZ7FquSwbHy+9VpWV4KKK026bOtYMkUyDFPyOTNzFZGyxvKbofyEbPBsFE2ofBZDlRbkRhXBPVo+xiyHG2RVD4p6TZB2PLsssvWx0zwhi/dfGI+K7ngvisl/iPnXetH2Pm8F9j5vNfBcK/IWZXKsho8oQ6KEh8VQ6LLwp+tEzcbjebi0y0Wbiy9GmIrjQlQu+XatHqur//xABFEAABAwICBwUGBAMGBQUBAAABAAIDESESMQQQIjJBUWETIEJQcSMzUmKBkRQwcqEkNLFDgpKiwdEFQFNj8ERgg8Lh8f/aAAgBAQAGPwL/ANy1JoOZRGix9oB4ibIlrIWdCq/izX0sraQA3mAveMd6tWHS4nR/MMliieHjp5+GgYpX5BA6VJjZ8IsEaYcOWFZtCNXezy9UAHEDkssawuGE8nIu0dxY4fCqaX7WHLHS7UHMcHNPEeeFmijtZRx8IXbPPaSnNxV+KoDU1yTgChhjdhzsqcVVe0uf6L2X2cjibhcFi0V3ZuOfIosIwTN3m8/Tzr8NC72jt75QsEeSLA8ABf7o2FVhZQF1kOixOFCL1TSfVVDMQ40RosTsuCfWzuKErTSWO9uKjlbk8V84kl+EWVycTtp7kGjJSDnQp2I8VJdGvhCscS7MZeJYUSnvLaVQxDHH8uYVW0PIoEKbRz4dpvnDI+L3IXseCsCg8WOSuA48SscYAIXU5rl1CBPFWNEGStLW13uao3Jeq+Ur1umaQ28dNvqEHN3XXGqpIA6rDCHTu+RV2IGnmFQ6cP8AAvbBukt+SxWKM0Iza7MeU0c/E/4W3KJZo0bR8xuvcQfde10U4ebHKna4Tyctl7D9V/8Aqa2P+y2R6qu8/U7mqninILBwXQLCuaqzYd0QD7OVAmOaLt4I5dly6LDDIwxcA7gvexM9GrFpU7pqcDksETRi5BVLsKs95PqsAkkLzwC/ETODKtoWjj5Q4MNHUsqRxX4urcqk3asJ58VTtHJolbeua2g01W5SvJHCXinzKvLmgfDxTXHcIpVFpVDm2y+yancgFieaNCLnPFXdUcBF8kG8s02nBOd8Kd6KnRAcgquP0RZHsNVfFXNAN3iuw0duKU/svjlO88+VlkrQWn9lgeaxu3ZEWneVMZstobQTi29SndQvZk+ioX25IdqC7qnX2XBG4KG0KqSgrVVcaNV2ucfVVY4tqsJBqqkUKPVG9mpteCIjGHqqm56odVcXKDIrzO/yjmuzjvzdz8tLJBVrkA68Z92/l0Rq2jxmqjVUZoECriV7ZwbatKJ2LAacDxTtksLeBVSNlVaLKnFOxv7Mjw8SrtJ/1TuzdRoFcD7oYW0PFbWItWSqTnqqrc1ldXFXnJVfed2+f9PL3sIzFvVESe8Fj0WGQU5FFVpsqN3LigZHxVFq4VsbR+UIdtvE3pkhaytTJCviyKwWDvhesJidQfC5YY2keqOVXauqAVArHJVxI1svxOkD2h3G8h5j2rXGOXmOPqjHpTKDg4ZFXLUGtPFUVsLvVVldTo1GtmjKi2HGnVe1fQfKqssUG6RRVa91OCqdrqq1uq6q+I2A6ppMwa43pTJfzRr0C29JmPoqxsq74nX8zwvAcORXuY/8KdGGBp4EDJGOa0jTSmosG6M0AbLovorZFGvht6ocYXfssQyKwkGqpqic9mNrOHVNbIySPEaVOXnI0qMVpZ6NDtFN4oUaE6kXoqYALcSq1jVKtqEWSUoVhG6VXW5yeJ85W26LspPewnAeqv5u5jt1wojE/Lh6KpzVQhc/dCuSyGolX1dVdNlkHs2XHzFXT5ZAcRyLSmwyyOdo8o2XOvQ+cNFa6QLgDlqpqzRqeCvYI4d1ZLOmqg92N5ya1os2wWEZMu7UY5BVpX4fTTbwS8KdVVhDhzB81c92TRUqWeW75iafpRYc2lVarioRNKtVguJVFVNC5RDM80GRijUI47yuyVMzmTrwvGIdVj0GQxO+Hgux05gifweN0+afg4nYRhxvTKCmHZI5EISjdd/VA+IIVBonMNkGBBP6BU4rtJqti/qgxgo0ZBdnDv8AF3BqNLuObufcq40CrSg4VRjlGyUNG0v+5Lz8ybUF73brG8VPPN717vsqZQzDPk5PZ4swqOVlXmE5/wBBqPZtJJOSD59p3LkqkgNCpFVkXxnj6LCwa3gZMtXUMV6ZKobfUWPFWlS6O81MRsenmMkx3Ydhiwj1TmjeF2+qbJx4+qqyzXX+qo7NYuKvvZqkdmcXKjG7XF3NbR+ixTWj4R/7octVFVTOf8ZKBNyb90O8MjMP18x0mv8A1nf1U3yupqkh4P22osf91hd9Hc1hWJ9RCP3WGNtGhEn/APq7Wbf4Dl3GvHBDFmV2R3Q4krp3aVo4ZEZp7JPexm/Xy9z3ZNFVjdYyOL/utKjPxYtWwaSC7TyVxheN5qd+IpgXaSgiLgOaAaAAFieaBdrJYeBvLuyUzpVNNdptnKVvM4hqoqUcfRXjl+y36Hk5Yg4h3BzSnNn8cdA74vKzFHG1xAqalbbXNpY0yQcwhzTxGp/Uj+qtkgJPFavPU5vJCdpoRvdQu1mqNHG6zmrfZFzzRqbJIKRDdYePU9414qaE5PuFo545a7IhprTNVLGk15JzW+ze2zmKN7c2v+3lZaDcsv8AsqcExrT7KV2Et1NiG9I6lEHRmlOHNN51GrEuzYf4Zm8fiVALDgsT/wBuKEmkDZG7H3yopx4DdQSeh11UzXb5OJSN/vLGw0yxJ8ozBwvA/YqN/MeVNk4PbSq2ymhtQxmZQh0h1Y3Wa48FLO7cj9mz/dOVfguqL8JouZ33ck1keQWyMUh3WrHMcUv9NeIgnoFdsg+i959wrOGs8ijA/wAI2Soj01PI4JpYeKaSbFtChIN2QLSGuycxHR5PeRH9vKnsIq6mz6r2laixCoxBzhXkFhDwOTc0IqNqfEqvwuxm6JaNo2aqeM7zlWlTwHNY37Upz6d3gtpjfsrAt9F7Od/1XgkCpLGWrEw1IWE+E01OB4hAnNqZPG7ZNAaKGNzqvri9EXXwNFUzSeDth/p5XIRuyNxIOc23hCL38BYJpbvuuXI4LbVfRSOdtOcMytDYf/LajK70b3rd4mQtYpGg7x2euvGH9mTmi0aR7PksU8jpCsLGgBOYfEFG5+9kfKtGrkWlOcc619F6o7RAR6poN72CiYM2VJTj0TQ2rnU4L2cbWjmVtS09FeZ/3XvZPuruLlbuyPGYCrLVzjcoeJjDVv8AssTclSIV6nJYpCXOVhrClj+F/lUDW/2easuSwjUzDc1sEXP9681JTWBzsTsmhUaPyN44CgNT4/iCLDm00Oowm0cprVYRnyavhHQL2nbV5oN7Ta6jXpg41B8pe/4RVdoc5XY1yK3teKnuxVYuPAdV2kprKf2/M7OIYpOPROJ3q3W0UMO8LoOY0XV9VHD6oxvuODtUrvijHlL+b9lNYOAor6slZY424nOueqi7ZjmBtSthwP5b3fCKqp8Rq4rEMitpurs67Va9yidSvoVLL/ZgYB18pYeDX1K6HuAUqSaAc1No7/7IpjuNaKoz6Kjtpqtn3jFozQ6SlTVUmo4jeAFwsbTs5p7Im7LqtqUBgNaL3hryWFpv1RrZ6khfvDbYU1xzog05nVZHD7yQ9mEyJuTR5S+N2ThRfh9JGFzbNPNWuFtuWGKMldtMaygWHJaVJ8T1H+vXipfVhe6hWy7XjcaB7VFg3s69E+FhwxSbRVeDLBVq1oQNKEbLqINfkcnckK77bFN+qHqVdNTpHc12tP4eEW6u8rpKwOWxO9vRVeDI7qqRtDR0ThzFE6B9A9h+4W1I0XqryBbLxr9o0FV0eS3Ir2rHK6GEbbLhUAw80Q77qy8JV/EcRKFUOab6FW1O6ijVHG+sMAz5uQZGMLRw8wjwOvgR7VhPUIbBJ4rYt0VirOVitoLaixNXtGFh9FVslfRF7GHA690WtGa+mqmJUquqMtLboVslhriPyr8VpYv4GcvMpncG7KtmrKrbOWDGUHMlOLqsJaKr3QVQA1bb1kriy2Fkhi46w1maGKzG5dVC7SAW6KXUwhYY2NA8yc45AJzyDRzjtKyvbWFiVW3HJXse5cqkbHPTpH2LLhqsqA+p5IRaDGXHxSLHOe0fy4NT2nlVQyHMi/mUjHO23igaE2M7LAqLZVCqqiDQvRS6ZpLasphY3mVDIHe0lNouK7IswPy2lWWenQK7cZ6rYaG+mrEW/QLZiCo0Aeg1SludFC1pqKeYEuNAOKLNEz+NY3nE48TquqQtr1WKY4nKrHFqqH1VeKbG7ZxG5TYv/R6GMRPAlS/8Tn3G7EDU2TSgfxc/u2jNgXZTtMjAKn5Qg6JwPd7Ovst0IVzVDkVNobv7PabXl5eXyENaOKwsqyAf5lQaqN2nL2n2VhquskSzNbQT4c45N5QtbRmjaOzGWHiQn6fIMUspw6MxO0bHWm1pcv8A9VPpUDvw0EWy0jxlBmnMMdd15yKBGR1HhxU0g4PqmS1zFKaoNINmvHZu8u2ztHJvNYpdlnCPVtL4WrZF1fPvXAKqzJXqEzts4mEQ8geah0LR3Yny7ekyjqo9Eh/ldFu+niPJPElPwejbx5lOmZV+gl9G1PBYo3AhWyoaqbnWq7OT3Z/ZV4HJS8xRyjdzb5YXhtSbBdpKccjv21YIhiesEpq4XKaKcbKpz/Iui5otqd2W0HC4KJ0Y4p5DfniK0f8A4bHvy7Uzk2GO0EGzbiu0i+reae5hzaUfRY2BdnPV0fPkpTGcTSM1o/6fLHRv3XKSA+Hd6hdlD/edyT3M3g27+adpGk2xuqmloHOqN1RUViFcURFFUlV1XRc1WzQLNmdt2nhVaXJpILdLkFG8lfPMqqldTbddAdNRczJOwGzrELR/0+WscHYXNQjiy581JG3NwopGma0TAgcb7iuazd914/utov8AurOeFaRytLZZtKvhVcLaraj+ywuaa9ViYbqpNF2c5FFRsmKM5HkqyOAjZ+6ft7VDshR+mq+SIZVzySKBRMm3wPMHvDnYpHCyaKZDuZLdCezCKZhbq3Vkq9aauCtRYXALLVZXOoJ7gwYxKRXzHR4vgGM9+rN4LE6w6r3gWy8I1tTuVGfeC0pv/d/0HmOk6Qc8WAfkUeKhWjamhzfZvNPQr2L7fC5YZBgf+x/JwnOlVpjeod/TzA+ie74pHHubUgb6K8jnd3sNHvgFU0neBwlUdcKh2o/6d8DiVXitJHHswfMJDyaout/yKBdhGb5vPILSJBlkFpUHA7YVFZU72LjqI+ODzBzRm8gJrRwFPyHORr7yQ7RT3/G8rRtJ/wDjd+Xos4yBwH6o+X6Ow5MBeqce/RNrwNU8nkStHHqf3UvTaUT+NPynEZtcHIHmPL4/mYg7Jw4/ky09FE3k0JzTxCngPgfb8qUc2lQnp5foMvUhNLamnDmqjL8hjfikaP31xuG7JZDv3VU79JUP1/r5fARmHKORoq+lCrfUcu8WveA5bDgVETwkB1slGcbqpp5hXREIxdeCEs0ha0XDeeqrjQKyusM24d1yf+kqH/zj5fo7GirnSKWB1mv22981YD1Ww4gdMwg516Ef1TfTVO35CmGQ5CiHaAj4Yhx9U10gvy4DXhpWpRvbIaix4q1SMca7Jo5Qen+vl7GcNHbX6lCWP3jLoHv0oPVP+ij/AEjVLXLAVifShNRVdrXETx7tUDqpzRhfvxOP28uLj4bqXSXZzuqPTV8p7+EbTjkFSSmJ7gKBAchTU+mRzUbQLUWX5IqdidtPr5dKz4mkIwPtJBsEa6HMd2yL3XeVorOctUdUkbvE1EVqY3YPymzDeieHIObkRXy6QeGTZP21tfH9Rz7tdUI4RDEe4dKhFYZD7RvJNe01a4Vr+S+P4guyfvxnCfLp52+CcUKB5iv5OmP9B3HMfdrhQqbQ3+C7PT8jHIaNVWmo4FTN+OMO8tkf8tB6pjTvZn7pn6R+TLFwlb3dF0pnB2B3oVtFbIVImlyrpDgOje5QioQjr/DSHY+U8lK8bsTMP18t0Z3gbLV6jiabuerfkFaHL82HuyjO1U0Dbl5clinON3LgqABoWerZzW02h1GN30U2iy+9YcXr5bJoejDGcnvO61NwzNJApVbzHL2kOL0Ko9r2fqCsdWyVugt5cVax5OVFo0TfCe0d3SG5yHs0I2cto81tFexbQcysUsmI9zC9WUMnCRmA+WRwB2DtjQvPAIRsYex4OF69VUXGrbbeqo3/ADKhbh/pqqGud6La0eYegV3YT8wQuCOYWkzOu8vw/Tu6NEN7Hj+iws4/uhLpF3Z0VB3be84FdnJnWh9VoZ/7qPlTmAmR/JixT7laBnwr8PMdjwlY4CKOvTgVQ7J5FVLgqB7fvrqSB6r2Ar83BVld2jlFGzYme+hw8l2cOVczx7jpHcMvVGaW80mQXbz+8z/Sq8OuracB6rYxPPyhfy0q/lpF/Lu+6E/ZPY7J9RmtBq4e8uPyCpYCKFoxA8xqL+zfJ0aizR9GDHD/AKhX8QWF/wAibGxjpZn5NamiXQZWA+LW/Adw0P8Ay11dwTRo94jvYTdYdHjELPiOZTY2nazLnKtavWxdvFpVDQO+FyqIh6oYg0rdLfQomr/8SxSU+pVImfUq7ymy78zs392ftd0MJUc87hjpsA8FTG3O9SqN9o75VSSaOIcgalAhzSeZNV70fRUhjdIhTAwFe0DXhOaThxClHKOYxgy4jtd90kpwsHFAEuj6vFAtCkbdsjHR1HH/AMrrJ9rDpLbdoGqWsJMjBY5B6bpboHvY6LCQzwlfy+k1/Qg9rXtHJwoUTyQec3uLliY4FvMfnbj3fpFV/L6R/gV9H0g/3F7mZe4lX8vMtqKULC2KRbIcrtcnN8Gfoq0ug5vvKXqi/IqwR/Edo6lgxqLwHAcBxWw8/pVwsUjgemoYhU+q98wD0V9I/wAqqNMb/hR/ih9l/MrA52IeJRtdoj3WoDzVY9DZEPnXtpq/IEMDG0QoBdF9KprpGODD4qIVNQbgoLgLZoAC7CQVtAqzlvXVnK7laRaG6uOBslZP2VNiSMj9lAYdrRO0Dm/9tAOcBiyB1CN8sYf8JOsyyE4QmswSTSEYi1lzRF8JqHtP0XYOZ+Ghhacch8Xooa+Krqf8gQXI2qrtW0ArEa8+5e+q12nMKkYdU8+CqTicuP5La5V45KIucHAGwC25KA/0WG1AntO6qkFYG55pzSHdplRNYc1VyZRuJoO6nBsL2xnw8ii5sL/urwyfZbrx6hWWWq91i0V/Yu/ZDR9IG2cq5FaZpIJH4MYW058U1krTDMaWd4vRac/SGMc4yFpJRGg6HLPEy2NaJM0dkx76PDxdHsZAcThRtbp2kSPHby2A4gJ80YLC/eaDZDQ4T7GIh0z+fRUGX/IVXBcAuYW4FZgV22Q2VcLJXVVYKw1ZLJXAV1ms1YrPXkqYjTkrg1VMgrX1bKyNVifVcSsyq1Kzqsj3KUWkw9v2IgNKcSv5uQptIJO1jk2JncU+F2hCkl3uc/OqfosuzNA6rHjNqm0KStdJcPaJscQwsblRUqMYdUBHSOwj7Yx7wChe58UbsO1zRj0HRpxGc5MNyhFB/wAIm51Jz/ZfxWgaRF1pVY4XVH9Pz9oVW4FkrV7htqtqGuxW+VvOW8VmVmfyMkQQFYfkDu3UWl6K4xzPrip4lnH/AIVo2laW98kna0ubU1aa7qUS+uJm01wzCw/iHL8RJWWaQULn3shHhGDLCsbdGjxencsNX//EACoQAQACAQMDAwQDAQEBAAAAAAEAESExQVEQYXEgMIGRobHBQNHw8eFQ/9oACAEBAAE/If4dy5cpj6MNweqtzvKrmbf1019FQ9BdBqKXL/8AkMojOT0Bv0XHQi7NSi/U1H4jlCaAtgDVOWGPH4NyocXau4fWu3cbrUyvodTrQwk6EYv/AI+KOXRYTFfQzabhtbiuWPIu0KP7i0w0AZzNFxQ1hAB9ZeY9CBRCd+Mwx1GNSpmrYpcO2XCw9xm5eSs6kehBlxxxS/8A45dMyjFy/StUjJz/AOsv3hrVVwEGRdgQ1ii44Rjb2hGmkG2Y7tSVTm8HmAa3ZqFyivMMYOFEdtzRr5yKDH2e6LhC9Ll9D6B0XLpGn81ly2NJo6Tx9ikczn+bgMAJWP3DIoVxpeYOheuupgRwmVcWCEKg2BGG3JNW674Zh/kJcqlbMXWEggKOX9TTfC7PH0lf1HDZ3IekmrpaIoXgIJUH+U9KfQrL3FfrYO5fUaQwiX+lKYjLWOvYCz6Q6YUirj8V0zcyGrHcyXdUykXnTiAwaF6bRybaMWaMHvDQBYHAfEBZEsOIGgVqQS3UG8PqvvLiphJvTXFiGUs/lKum59NnQvsbwS5hlchn9QTpCqkTo5bv5l1qft5lbuM5gtgbVQdkscneM3WHFHa1n8RvG5CKdZGkGEKcRwW1cCmF5fDDQJfRg/xzGOsDwPTu5pVNhA8T5j2QwS/iIUF5p/cB85x/tGSnV99kHoR0wm+kfyjzGXL66zwkcxEfoY30mC4O3/mHkJuV8VGyl9mmFfTJvufREqCCg5/1CuleVdo6uBaEIkAvvjs1YD8zAeJkneYo1IMAcUFEBZtS4aDA7xjrDI6F7wq0Dk2YsMy6BHbtkeRuQcXeF2ZJS6hbdPt+v/cfPNOIZ4gG1bMphLiiMScIOmZ4a5Wb5S3f7wepdR30L/4CXYFC4Z59CyeYEbHB+6L4ActkWqVg4VzKJPGLJTUfgQTcHKEqbqtZTVWWFxHlhBs7QRwr1+Y+rov64jKQrMEQSlXK+YEusJmZLNb2cSwOcEQgDbh5Ru6ce8Vroo8zKOkHys093I59KZnAX5nfOC0r2O1KXU5dj3ZqfyF4O00jCaiYqHMxmmDmLH8lZDmPoZRwTnCIauSbVkY+zAJ6O3PiU+JoFsZTXnBpEAMmb9ug8xWcB13HnB3UlkYFdxKUsDXZiUuYouAIjap2gTZrUYORsG0d9oieNIg7Z26sK+9MsKzbd3lF6LPeFQmhoSnknyhJV2lygw4trBtDmqWd7qDm6ttX6DpErLj6HL/lJ9Yf9cJFAsZHK5Qx0AP3OSElC6xxASo0pBdPa5Z2FKw4Yh264qbVp9YWbUmRg1qhlitvbRk6E1jEuJ9OH7kfgN1z8pyclUlB0f0TM3UA6GNCpcdRsJcrs3GOKY1CKqrH7QAcUDuuxLuvN/sQ9BDotL6GOBuHQOkfw9PRp9jmWNFEcbIXpMPyIB1Q3sspukfbiritiUwNbldoZMnzAwoDdUj8y194iSWBbFBMMblnExeo4tb4YsVgaFnwywI5WlzqlcJQai4RY5gWMeEsq7WYKWmsx7cOJdPJglI1EQNWEIwOc5vM/wBn1FOqWXFGr6FnSj/CZhLuj7C74T5LakZEaK1WyQQLRRWIg23g7M0Y+zH4worvF6uyjhfeUpxuoj2D4lwbYei5zHA7aXqP9MGi17m4dxfltBWw07R1J2HiWdbo5HAgRFtJTyK4f7iny1qifwJUfZuXL6XoJcdw/h71i3H2d7nYhJZNVn8I6y6QWmtCly7xY8WwWHN5nGheIA50Ufa4UvJ+kLM2D6SqfgWIR+wGDBRtnMp0bcYiKjK78R4C36Ex4wHcVjkcjySs9a9q/Rqh9AP4DLzH0PuJiIrEanfvKxtCYKr6JDxCzLJlacsaVLhbjtwVAvCzWZUHBaRMSHFbRs6hZc1hzCpeWAUNWNcUlP3iO41b06jEuKtOoNGWOHu1AiQIYPSYG4e/ZFxKXpBF7n5gUXZeJi9yXr2QRpIybfDL0lN0RgWumWNhnIEOu273lLYps8yl6L0vmHfNf3Ga1OkB5ip+49ogFqjn7QxfbGpn7YtuO/pM37m/XSLM0dIY/gKiZIYw44+y+rSuewd8fMstSMxmpvrDPaqWICtdGIsA03gFR2F2jC3fdlQKx7D2JTmICUbfeXYlWfqdl0NnmAl18jh3Qq08r0PrNfRe4MTCDcYe9imbpYXW/Qek6suXmmj8zdthGz5BAB6vD2Yi0LOJXDo0l817WkCXk3dJQPGLgkaVrClQusZmu/rEro2AI4zbNg5YJWte6ZcI+EupunOill/EGPP4AR747wj6zqM9MQro1h77q6pH1HW+h0ZSTbw/Q/EyhT8YSj+HMYpj7s/twzv+jE1xLmEEKQhdoxhXcQE+orcygQaCKjH/ADO8DVsttVBEJIeGDeB8hhbLKX1DvLAUGtgOgzRj6zodQEHpD3npZ4zVRj7h/wCxve61zhl1l9htBMtSNgf8gaCPgYekGj5ht+RL7LobnFhDbqrWVfQYzGhNtmIQiTXYI2C3exghQDfnz1qtm+aEfY/Cj1LLKwgcQMysF1u7/wC+3qmmEDP8GbI0ejEY+0TeWF2fh3YHILZ5WaGKm4E7NqP3fedw2gI+G8R1aMELalumfxapj4hYT8iLP+4wByvNGKAAYA26OQ0qyBSb5zOQM5+Jubt44mkS+gQIqzncPsnQ9AgkP4NIi4yKMfZOmrOkx5H5kMd4rRaEo1/rv73CY7nBmyB8UF5Btht9UWChNIE0+du7ia614jGb9GXMDEbGZcaXPLbCtvhNfpp0AytrZg8yi+k7Wz94e00yifwWnSE4uisY+2uNMU07YJxaz8zTo/aZfzH1g9ymZ0kmzLr47tR2qMotqlPfDrpgIwAeWUoo/wDRN49X2BR5gI2+KZZ2HzhNdIEWyzK3OMpRIQqvEJCwUcBHqHCzY/mHsnmGEcH+A406++0XYaVYajtVVmQmjXBL6WDC6b4pAArQA8ROc27TaaYi5pE7ymDxJ3O8L3nmPqggAA2aVBDBrcVnm7zB2v8A56SBsVG1N/JmcksnmVWOJQ3NP81g+U6ganKWxY2uy/cgDLPk+o+Y/wDp6dvQ47jqWe+9d6rl+vaGqA/GA5o3E5ZYsDskcWO0zxjjsG1+0FuvHLAivCiR+59kqOx2YYrcL5/EIVsBwJZC9g1LglAbwJ3Y/ZiLLxGKS7lQj4n9jBM0sHtN75lExpTtmo7rJu/BHweKfaWl4ZDeYjPiNf4JfWXV+fTt0ZcUyxnQPeZnBUWYsY+zjWq/uK/qMopXeOsysd2IHdqrOtUI7d47+iAtBaWtaksE6g7IQQb3LzKlaB5O8bmhe3YRZc8Iex0fOyNxTyEpL/zBR5yk1evEHrse0Tu7NPGw7AlZpqeRgvRHYdZnHhPmGvxtecEw2LHzyP39N+gYuoK/edRlX0LF9lhSxa+KQY7i9neBxMb6RaRlc7KyZbosSy3ajR8P0l8gAU1CXEq+5cD1vJvLC1TxM6c7cOCHVcDULyTU38JaFO+oGxO2US6z6BjkuZShZA4sI+6fSRASVf1yXrWH2YC1fgZuqZeypSIXDz2irP2bRlV7OqL+AJR+l5j7d8awzKB8sXDWHcwlfrJsygpC1mFf3DbujF0B/RFqHf6OK1XmYQWKHBzLizVmfPCQBbshb0WuuZy7hIz8LAmioN2hDWwRuvpjzKfrajS4gZefxDpnmjeGYsQ+ZsHXzi+yawimn3bHHGL90NyDXzf6lDLeLgQBxt0i2xDmULZ3XFWhwEK52HYYSVC0tmGGYYFx1Yd3M254KhJBwDGM7wB0NiMGY+8meYO33XFptM1IT7mzFjdVPmCczGnQSs7laSwqL2ggRKTvP8KyQ9m+l/zoZSqN+FMEbTTWYItHMXWIasqt6RW6PiTXIjjdp4LArOWAjlUXzAG0J1y8OlU3mFoM1MZqhaJgHvtHTMCTiVbqI6RAcm32l3rGKL+sEMPBYxTh1VhI2elxNGaMx039ZR6To4l9TXFKgx7jomfofdBXR38EXtmZ/b7RUtgJSwQFOZQsKdpSDCxfLiG7LtXJDag6a2cEGZUD1bdNUN+QNvKM3PseZhlp2jbig7QvatuM3K9B9JQ0BXiVbvFMkwAxfNHMN3yHzBh1OjCC5YzLD7j1qx92mjSB+Zs0EdsRGGltzMLRXhCHV13UqEBCrznoCmdYaex5nKa/QQzmuJtGEu7ZpK1Q7d5pmtwZVLwO5GMWZfQ95cvV4IxujXlqwh6g6qiz7jNccdY+6R3Hi+psBHmYaIiak1Yw3kQRZ9cKRVrTW8M47yVS1nnMwHNOLDqdAYmxpOI+ih98DmUkqMooRVuT4Jbq/RNki4o3HaJj0bLMsm4bTCJcPUT/AJN27LzLIzd2iorGo6rjq0jysGH9yHrOg3KiGX7h46H3taNRn3xGh2lEzNEZfAvggsfexDaR2jTGNUnobgw+zHVcyKSyBUUjLB4F2hQgy/r000JV71USKVyECURb/USVoA9440zQ1muE+4jr6+XfeZnqPJEVdvxgsmP2SijxLEXTWOyxeuAm4mR2hrCHU167wiroMpdFftaIs9LGXL9ypY2dyFVI+ydwQJnjfydwa3xMq2Le44ZW0gauJb1Dma8Ih0z0D+U36CBjqHNWTTEKt7U8m5BzyNCZuMX2SwLsWl8OGUwwY8xAWIp6N12/iPX0as0d3n6QgGiUEHZtFus1SzG9DO6MdCHU19Ia6+TpnsLHiLqY+zXsMsdtdOMw3gmOSLBr8eIr+bSzmFDMR5WawpupLynhMzWt8w0KWtR+Szk1BhUeTeCjAWAc5IJgSDtjerxKhu5X+4nMNoAxMeyvQXFgqFPt58xy5830IQ6nRcIMuXKgz0afWsXmOa+u0ffvozLVgGXN9FHmGYcuVmuO8S7KoResVAzu2ah73GKYZxLjiplCzAVAwN2q8zCW8kW0jTMgn1hgTXaa1sTQTaG6mVtq0i6LA/hq5r6D1jDoQXM0qh62Lp1+h9R7F9bQApz4lW6ArTWAlbzrMC795gElV4/rMQRqawSuC4a1fiYsYyS+mmp2ufHHGIZlasZmQVrqXpApPd0jkXiaspraYUBH7h2QxG1uBc1jrXtkOkqYr9eaaI76V+hleo9okjdDMNPbKtXmJCYmC8u0Hc/mL3EBXKCHb2utRDbAh4SspXIdE4EMeV4YwUMXZjtxuAG4FR+vmK3F52J+XMsUBOK52Yr6dKoV7Js75h7Z0ISiZeij6LHUYVsuX6X0j6r6EwNatpgq9y0JYk52vGD1amT/ANiZr8E8bDUuDMFZY8yyVhE8wAUdjlcBeis/k8sFAPeHsL+0GCaw29yAUUuryRLJQsJgpic712l1GB5onFHE3HvVfkKh7Z0Oo8dGfqF3WwoI4jDqx9R68vErRsjWzFHQO3Qb+kS7pSBYAeIdiAMCLamoblLiZ6eSDd2Rc1vHd0FnA/cAzrzbYT8xqbyZ708SjTNvDeLjKUMMFCHMJvHCAgrDX5ofWbUcuDPMyY+qWkS1e7cXSUj0XH6PVNEWL0voep6HpcTdC1gq6DicHmOHHEJtU8TTb5+YIM7eALLf0YqmPfCVFkl8dI82bTDUv6qFu7yldc8GZfuoiiqF0bK+czTG3FinS+0HvALMW1IA36OI+pd5cYmJNcRn127d0zgOoN5iDnB4qIu2m36D2iaOlktUWUwwmmDMEwY9L9D1eh6kVHeB7zL7Izk8I6cSwV9jaYedq3Xabl2D4gcT9ZaX1vq2AZl2ER002ldcFrDhJgxx3LV8XHXa6+tat/cmBJ0NCN4D0zT0EvOaLjEFAwzB3IwAFwtYu2zhtLi/7b6T2CHQGeikGUuUdBBTBiDMY/wDJsqZeDuUKyVXikeNQmqj4OD7jmGAEL8ATvrMUJ5uUFBObm5T5j22ILYYNdpooGsIAbGB5IvBZLI8OZYMTC0DuI7oYULmzTErG5k5uBm6RXagodiUN1MFKSLUnKEKhu2mw/y33QhCapaa479DLupmo6/wdFDlNyBXhqtVGsDUNsxkio1zjEz3BRefmtjCcssjLfIRbRd5m7tl7ws+4hA1r8iX1TypWmpWEb78gSnNRVQZhrJKRn1+1Fq2fnLSAiIZo5ZCACamGCWEn5pR8MsNi30vsD6ArjqB6Hp4dGr+Dx26mKyeLmBpWAlB0JvHJTkitTL3P0om2jdUZrR6CdrTaPFH/il7+1NvDtKSUzAgUUS5UPiLndUsg0ORaliiKudvYfUQilzWH1jBB/FLhEjkXu56YqV1ePkJVaq16D2ZhMbZK7TTqWwmwXrBldIQaXM7At9gfUdCXPQwwg9cdwRP4WniNc5fGMQEPWqlQIfpjobxHQqwFQYHO0wQ1vgQy5OfySqUypg94M9cCEVAYflmJ7/YdB7wmEtjx7BUxZjDD67i9lUncyz/AKAYaRm+KMPwLljIQBjSEuC4rVhCGRfuEfKVeaVm8n6jJfpDvGArfJHp1dWkezELfBcQE1fdQ6vsnUQmMxdA36VGPQ+yw9nOdWM7zH3dWuV1vE3zExeVgNFgPixEpaY+WFyzEXaogAEToCPpAQM94keyfqWHV6X1fQQ6EHqLGO/QxdLj7VeyhoWftcPAgvoOmiLPozUHgNO7GdpXg1qEc/WGv1K2xmzs6RVGz6iLHWoLyL/LnxHoeh0fSdTpc1wY9DB0+Ur+HwAJywdQ7JrFiOX0YVqwSFjA5gmtHiYneQX5TKoFuDyS+nI35MeuuHQv9EphSdp/hCCUlQ6szdZfpfYPVlnGfaAhdly7S5oj6LqcTaLvCfdif4PVC0xV9o+p7D2uZA+ow9a5f+KXU61+j7hK9BAmjoLqWIosx9t6nqdO1kxAYfDBHqM9A9CtTaZ/8wJVY+Jr9IgKsrzU+y6XBnJx0TDWs3vIJLTBf8VHfi/J7R6joenXNPVYmpNXuPQ9FdUW85IfgKXjUlrNdjVKgx1YXUZq4H9BZQ/7qizelxWFftiCHmh+0BHAMt7QfYHEzFgoHRU3YFsGnhcKg4uWytq2fENs0/RD9N/L2z1KXF0aZfTTNcY+o97YsH6XM0EfJuRGoFutQfSsl9wzMh/uCoiAkWQ7XJft0BI1/BE/fU2XiY+brs98VgE5oQe8FptEKxNpidq+CPH7y9Cc6niIDJZblRXk0X5e2ei+h6LT01dHJFuP8A6szZrECcy/PkmVcupFiP0bzPk3qJpTnR5gq7X9XRxeGXjEOeteNllouV7eIaY6aoSgeJUYZeeehncFRD8Q+WT89Dq+1cuXLjixMI5zRF/DnTaDigFfBc1DP2gofqWa6bw2FPPsir6PMobsjmHJUuGmZce19nQ8VLS7YgwiujmAAAVx1dPoKiWJDSrsPQdH27gxwxh0CzrSR9p9R1YDX5yoV1rwOY4Q1NyMfAvpvq/EpnQ+hBc6AvguLN3egTYY8Rln8cqaN67w60S7rUKH+yN4291nov3yizC06DBB/DnS1qHPJlKrE0xUNG+BFZZp6Cez0Feplee2vX/36ZZj5A9KvWAy+lphlIkHX7Z+5Xv1Eh0WYsQ3B7uPVXQnaPgg7AUw7AI0yoUaHosTcxD4i7Afh9BKWAeYFK7X8+qpjzpEtaaWrhAZM7EwLT5kf/IV6H1HoOlSq6j0GGCCJ7Z0fTzwLuLH7jC8676h/c+l/F0avVYU2ZbGLxfOGZrT0EjmoN/+kCugltm7y+I7GPrM0SVStuhZKKEmo6MyHdDvwkBvPK/7DtD1VK6HpISowcy4wX1Agj63oeivRRtl2DaVIP2WsQAaAqLHX1pgNazHXz14l4isDxWYM9fHg5iRuWuiAAjsTHlpvNXDiMvXJm0Zg8HKNmHm3ng0Qh0fTfQj6W/RdL62dKjrFext0Oj1dNo9gp++eZWwREMBCt4Zsq+aKKWFMhTATDdU0Pcv0Qdu+OZpfVGqX2I0i2PL6OcnOL/7B8DYarm4U03wS0zmkl7L7GhBnSBio7ubgvuQW1Yy16WZVXxiHtPqXNUPSkx9UpiR1j6DqehmUi2lb3zAYH9nIElE35muIG6iwJdUXxoiWCm50Lm3g3PuJiAqlvUzAWu5cx3yE2G329IGdRR2VNaOyjWOKIOEqQUVp0iXGEQqGYkaKFDiNCW0PxPuPQ+ofQa9R09hlQfSCVH0nSpUAEdq/iFzoIGPlCejY4zhnfzL/QiNFOLamlPyxG2eIwYfpmeIu8oVLCJ3oFZu7gPiGPog1nJJT5qlS1c+jaH4c7CZxTY6l6BBNmR8UqKItOUO2YFYXdUuQ7FZB9PpRs/dLDH236jPDNGAcxO0ajKGzHV5lROtdCY7C4CqP5B/UqMLQaDtZkKc64eKmSfduIX/AKyGZ522D8SpmANn1PoIt6mC49A26dJNceg9BEC1U/YOMVmeJgsRu86f64EALKbd5SWXRWblNTp6SF4J/kiuBcxjhk0SDar4pxwoJ0xvdAEprTR+kIutwYhhoNo/YjFTToLkQGdGsfeXKNV6NLmpvVg3OIGHYfMU72D+pAO4APzNJ8dP7mXFzoS/xZeZcu1ypmkFMTESkuzgm8JWegDGkJiG1S+rOLJ83ECFhLMMdFsV5uEpfpmfOck0GmBAeXBNsg/ZQ7VYiMbKF+kC6s/6wW5KWX7V6IIFTJEea6kTT+5QE/MTZwv4PEepT4jKxvVlg/Ohrbb8SoLu0Kyo/D75TQKlubmGJq66z84LUFeBbisCx+o4Eqxr0WbmApN8TsDgnFSzGTZdQmgAugCbUPAifwCYoS+yFGD8EcOsyDaYB5YQ1GRY6oX9bNBRBvIZdYHsik1GDECFd0sHmHlAoOJxFrSE1jbvMxb8EMMFe81M37ka1d7SDta8YmEoPibgEcODhxouL3srbs7RSliqtVmL74jwbVKWPCP0OAGJmqKrtpDDYvfvMctXWsH1ZFRzZWzwcrh4hAyLYuMNZliOQO8oZXut1hzNBc2Jb9FKqn9I/Qph2VFNEjqiO8R3VlGrKt5uUaFTLBfMc/cGZNN7Ei5Ku/EXyYgzcvumeWDymfPQD3YDuwAIxWa2d4BtrOGNpeU4679krrKFHaBaXbB3iN4hQENaF/qTaLOmYD4jZOaqvMyqExTLXMwd5qBAtCli4i64H1RjT8Um1PpKOE+kaCADhEi1enGXEHLsdjxKIQr3X+kE5CGo74xAwBxjHaacXw4fDNnE2gakc3tsIXdks/7Mw9Idotx965ng0qcC86wBLDATv99WAUMTOKmLOxLaY5JhdtMf7KX32EuZMwdB8x7xjcppVFNUW4mJtGW9Klq0TeGMkronFFmh+kBMdxooftNNhotiUqEZNRKu44vmF5rarP8Apxq3Jest6gYZIK0saBtFVveWcUY0/KhFytNQ+SGNIQWwWNUBFYYLs3+0pETdQ3AJNWNXRC3cNSvTNVM8ZaJdvm5pLt02XlIJ0ICECM2/rN4jQMwc3ec0EmTAtEYVHbiVZOrNfLFBR6Zh+JXFpOyuEl/HvYsB3n/FnEfEdW+uGqZgGxiCoovFfSAaJMylg33JXSvOeIaz6sTf5ov7mf8AWlusFNNxpJd+Y86J6XBiVoQp0hasQUEREUTxLLuJl2t6xZG4TTDMqVfMuBc1z0Mrg5RMLXTHViDeKVqfModd31zNE1dKBqvmUFV2gjWYK2gKCpGk7Muipy6ynaVe3Z4iRO3MVCAg0dk4YMwVREb58yitBfBAqf/aAAwDAQACAAMAAAAQ888888884Z/H0yskhigefut3SU888888888888888884dflKMewAUZ/doyG2wGhw8888888888888k3EfYR8ozAbigew7DCdTz8zY88888888888818Yycpe6eIIS8gP813Yi+6FS088888888888V9MOmYjhgPRYYi8+TYmmL+xXY088888888887/yZD2+II2P2+qehRUjQiNYv2lVU88888888snqPPLa2jSDtxxSi2+pNIadf1sXc88888884BCl73C0zwi17FR0Hd8kIJYIrXNV2888888o4s2sD3qEkLezjrETuepolhs4nZAGQ8888884RjLIAQtEgXlJNHimoRGLuM8YskqCc888888oaGr0oA80QNv/ANH3/WjUCAhKdBPedfPPPPPPNFdIgCBESUKoyH7rOJguq70IGCNhUvPPPPPPJgfn6KJFeh2wGcmmVBK+1kKIJOI2xnPPPPPKLS6Y3aScUMGZMWhiEQT8BezlPOJhQZPPPPPLNo4BBLNC79JzofT6IV0HFixpGKI1zTPPPPPCxSEJPKIIzPhfzkz6yCnb1DuaEUPzFvPPPPLML5NRNHLCsDEqUBPCuUnWOiUOQM0/CotPPPJJZ8VFHLGo2aF8tEhLD7PFTpabUMLwGKHPPPFXL4cIFAZ/w4/6MdUAFS0N/qFDCLcpii0dPJh5rIOPNKMaNAmZTj+km2tpHLHGBEKHIh3izHjPr1GFHHAABb43cx73+YZm0QdFcLKPBL5oMqOSa4IOGNNGOceejglpgvtDMND3gLNM+M1HTHTTL4HOGdLGEgbbeSTgz7G/wpIdSXACUZ/VPOPxCwMMDA8AGBiRnx5LNoUvseJIQOENTcZlPOBIGNFECw5IKCKHXADEwHT4qeCJALgP55dRfPHJ/OOAGKKLKL9zf/7MNzXAl2ZJIBMK/wBGvPzOsXSQhhSRDyAbNWuOPpL7Dy21GgjR2POeBbwWu2CwyCASjh1PKAnAtRFuvUJcCVTzCYsi9LD1QUTRRxBwCmDcPn9euJPfePoEpYYSxZMMQgB1jPCATTiiSycrN22fukJySlNgNkTAEcN3CoL7+c1DQxAVGWAwU2naeh3X+O/4DS2QO/8AQz8AHgnNI44QEQxA4qq+L7FheOmTC8Ak6fb79smAs0kby4TwYqU166uWuCroSZdWcqksnbCIryOC8841IbTDYOH8cjbKSEnW1N12YdbgAGx0g+pB88888cqFXq5C26fFclNz0Zojkf6RGwCBT9HP888888+/cj+9ddfcDBjjdCfC8j/jcchf8jAA/8QAHxEAAwEBAAMBAQEBAAAAAAAAAAERECAhMDFBUUBh/9oACAEDAQE/EPSkQQS4pSlyDRCf5EhInT4T4ayf4IQSEh7RcwXDEmNe8hIgkWF39y6ylKUouH7UIWeQ4yjZS6XKNiZBIaIQa9qxaxoh5IQgj7iRCCWvGjyGJ6kIXDJsPB4yiYiZdmfD6NepISFr1oqR9ITGIXC5Y36UqLk9/BiLqRCl1cP4MfqXl62MRMgh4iC6bH6Uyi7e3FjZREE8ZMY/VBc0oz9HwmMWU/eWP1LplKfoxcvUL7zBoa9CQiZCEGuVsx48guEMfpJdMfHlkZBYxcJ8J+khL0HiydUT9L7Q/mLssWUo3lHi+CEPhjXaWL0QdAMI0NNfR+Rs+Aj5o8cTH0+ULE+L18ov5F4CGGoQ+aLYEv8AQl2nDRNSEiauFssP78TD+jb8/CRfATF+BJRM+qxr/ur0vHiIJehjP+FGHki28/rJi4j+IV/QmJiIPlnwY8QvT4I2LoUDfg8CQqKhkxdA+paUxMo+HjGy4mUXMJrZ/wACtIRnkhBiw4rZBeCn0mvKNcIXK7InT4Yum4XhC5ReGSiWti8iWNdrHjQ0PEJC9TFrEj4xcrp6x4hCfqvDFhF1iKXbw0NYvovX+4sZ9DWJZSCxa+XiYvd+choSxcsWwhBsXphRaxDEpyw2LYTpiiLzS48S1rEGUT1DEXb0iifoQ8TLyZ8E/I3l8+5CZen4Gy8J4huV9Hz8LxeaJlKVDDFWJlG8Uo/JaVnnFxS7Sl9H2eCYemiNFMjPJD4XYLwLyQbRRspfA2UpfQtP3PwXJD5//8QAHhEBAQEAAgMBAQEAAAAAAAAAAQARECEgMDFBUUD/2gAIAQIBAT8Q9Sy28iTwGhyQ2w/5Vt5eu4PiZd2srs9ydxj4Ftv+DeNnwyjqtbBJ3O7Gdx13aFtvA8EPvbvhkZ3CW34Qu9QwLoZe7d6g/vAfnsNYLP7tfttsMf4chkL3Cvdo2z9JLchBHcH0nQyEJTY/CH95OB9zNvDB7Ft02mzDOpx3a/YAkV+XEIvdnXJbbyb6smfBN+8Thpaft8Qh/wAu5rcY5dGsFsPmdQ+plt5eTHgI/lhYnV/a69W76fyCPQssvg+GnyNervF6tNwunBaPmRHrPnuFsEZrrt8ZY53yOD0tnqMBH7bfw5CTLq3yI9Syy+Ijw89PD5k4yPEhj0vD4BTCbZtEvjgX+eGXSHUfZ+354nB6Ftl8lsPeRu5HOjjONthl6iUZ6Q+BEebLb5Zsw6TDrO/Euttvio7QaXTg78CD0GfMNncqcndnk4lJvzEegz5n2OD6t6vtlkEJEvjfNnDM8SI8ln0bbPZ3HS7fPAe+kCzp2DCfR+S8VmfVoWBhP8bujfglZV/qeAInpPDZeH04NkeiKdbpYXSz4Any3LZL58yIth4eH0hFWEfZl7zgUtbOC4HerQ56DjIOHh9KdkA6ktl3d/y7L8bZT5J9Sx2Ae58iODnJn0nTttu3z7toWIQfhLZ4T35nB4M+4s2fEfSdweDL4seI5zYZHG32htt8D6nh4IerseKx9JEcMz6h+8PBfnhvB1b5HBwcM+8HBPbjPScHgTb613M8F+RL3FtsrJ9R8Dk/zxPI4LOMk2SfSSt4y+p8GZyHjnJxtvCWepss4J4yX8nlfk+Zw8tkllnhkEmnUichHhXPlm8DYPLOTywbLJuuAkTqcOpb9sGwMFqzj8uj7aSFnNyAnVpaWkYyfyOMgks8y/F3KfYg/wAtP262jWYCWLNi3ZTrYOp7X5jYHyQWQhywWWWRJ6H5ZxL8nwPEeJweQdcM8Ph//8QAKhABAAICAQMEAgMAAwEBAAAAAQARITFBEFFhcYGRobHBIDDRQOHw8VD/2gAIAQEAAT8Q/wCEtdAYm5WwxlcxQyxs24gOtxu9FJDJiaY8xQt0VhUtYK1hHsVUa7EeRBHNZO7MUCmadV0NQygpm4NMccsNZnsoaGYDvNoP/wCQzq3KC5lURlmLcVcXUWku2MGpay+czN2JSo83LdADzwEXcXkNoAd7rMRd2vsT0vUQ3Tis9OckRwTj7bcVeFZe+6VAL6ZGg8g4YZLKDm2qnK+Puc9TBzMZLzMo1EUz0Udw/wDwr6MuiGKnMsVsDVxBacRxuA5lvLLg9F1lh7O4TLSihuy7YeIWC42Mdg/aZQGwwMDPvKVDB2gOdENWC4Fic+iLpHtkr0i9GWEr9qbl2glZA9bjJYu2R4ad/UWhgEW2qeTRviGnqw1Doa0zneXR39INO7IsQMBnqikLx1lnSwL6ALBl/wDMuLmDLl4gExe8tTNcS44xt0qamhVoNrxF8rNWi025vwrncIQl4Mu5QERplicB/wBRdC0Jkp25gpla3xTMH7UKXQu/3KU8iUJK3QqmreA+8YzLRZPTBw62/AXiNwCtl36OLJVY6ueFxX38wF6tFWfNWO09S9r31m4YQvFCEnamt3KBIGEvZozD/lMuKiN3DHgi7S6rYwuZczFcz3jvqdHI6WN3CeVdarwgr0ZYekHd0Uq74lWeAzCoHmkg0imOXk+IdCWVOGPAhZl7vwMGSUAV2AgjhpbSFn4hHR1O5vD8S43mFBy6zBjoW8KPIkaAoqdX/wBXKjMlfOPRq4iVpwjv32+YxACivHk83cVGJeCXGGY6hUTXCxqOW8k2EuGZWy3mH/J0jRCFEBcy0w+ZXYRyzF2nEuXN9VGQhdvWWg35YoU9KlXJ4HEIpECOWrt84iOATvMKhG1agNDQy/L1hWHBgi7ds+Bst8bYoDBxLPaDkciLYzXiI6CtwOBLl0GDCla8RAzXXQe9cuJiNUVDy8qPPE8fZh3e/FRLUKTOZWKxgqpsPcWCI0IDRDUtloafVwQfInciDNq71AqZp88zlNd4FBiCO7qLmyJRcp3ihzzKEGH/AB2UOipBQ5jaRV2st2y7l7vEBmnOPMEy3g5J7MuOfCluCAtO8gz8QwSdy0TMINZWFOkFBBcNK0vRr4jkG6t7pllKJkMW3fqXMbuX1bBGeDyLYovXOpg6LOstsX5qPDjynHaFhHdJfEQ0yCv/AGYuICVWQ8v6jFaE0Uc1HnUvbVBpzRv4zBiDgu+x9wT7QdrLGwK6v3gXT9wRpRGT1uZ120Ft5/6TDOIGfnS44RHu4zPTWL1AK/mMIkgHkB094XOGWup5dAKtyq2M41juH/HYsS9VE+ZYY3l2x3K0xnuZPSMKAsdarA1riAC2a+UhdqvnOnrAk77L8sH5h90Z53xctXpXAI1Xy2e25fUhSx2fCyVN1A7G5Q+4Cr1HsKiqgBAaRGXoo4HFC4YYwv5kdIu2Pb/5LkWgTgu3/IAArr0gs0cw4JhCCnkxlfoqA4gMP05Pue0Ei/fASbJnG2x8azG9VYzbJ9M1EVNgbt0ErhS4o086RK+B2SYskqoEo33UbiblpUKvWrxKiYDLW3/IAi2JS4fOj8Qsbq8uz5iKQ2VzMS5k2zvJYTM0jDX/ACBZGG5vOHokSejKsxpi2GpUl2UPHPMOUFignYByeGpUSegQYoqolyXo9IUatZI3Lq2k/wDnAviEwLCloBNkc59ZREVIOXEoB4Vf7KPmBdchXt/2SAVLD81k+CMSVWOS5djkvmJBXRxkf7NVZjS2WJkA2rj+DNsUdb8RYekN3s39w3WZK0yo/Mxiad00zL6aio8wVNLZvlt/cfTxMoBOg4yH2ggmfbzvvqICExWR2XCsBtC2pWziYvnPi3XmM2w7Jb+asO8O6K2cYixiK1yiHY9YxbKhLRDX/GZrMiUqDEcS47gw5q4cAehDHIggqntPkhJxsspDb3zV+Ipe5macK84YKNuXVB0do3d87k6WBwCuN1ZgimRWg8r/ABCsbbVha1OAeVZJpogzZOHPBfkeZpjU8Wj8DmFMV3F57Sz3M1euNSGG5eA7axEoRKVy9O8GHIc1fYuUpvIuieGlLi5Oc8l2ty5fOAFuuZTNKUrdmpVnsu3aonesq2rwelVBjBmrO3HaLXI1a4SbkA5T/wCSwJKecLe+MMPtdqhUBKyytq7rBR4g1dAXuuYtnb0h0sVHqpfubYlQZllzM9Qwly5cv/hMGIqwSuWbx3BuLmLBmkTCO+8GRrVIY2eY3xz0Rezz4hNk+p7HzuBdOBV1lSPMNVDhagjCExprZLsWgBlvBL0FqJKK98wyjEAIhwYHBCLgBMU9skdteEOp2zh2rt+pc0pGwYZMJbK3Vg3EYQpXiYs5am23ul0ZBdNaojMAUQVYxiZSeEpwl6cxBRbBaji4Z82WMHhgXBEVd4zGMBKhaEXZQ98DHzjWljZS4PF1CSpuG0NUOwA+5w7/AI8wldDqeM3ZkhSVJcGmYbaCELwV3KRWdB/4DrpUWEI2RJuI3HJAiM4HvbxNZ5goS0XrIfMoKPd9VTfcx8R86iLTNSpqsGu8NwXnuniCJLA7Hpx+ZhfNTXx/4xAEKCpOFJjmKiNLMAGhvkoIRzYAVRMUlC2/Ex46poBaORp+YrcShcSvaileymgZRpKtTTH2mswWjEH30W3WfaYez4pAfWHPrEICi8rm97kKJZmF1LNK4qGlhl8aqMWJbSRtvK2WJzTkNvV97lfwWNAEqkywzIgbiWXF5YWcMyZZ2Jpl/wDwXUNkdmJaKBFCP8GVdhY9ziKmAlANiq7dfcuoO5pc+IECDhD+pngCwYxGhWdp2e5MAJwEfmDK2Nreq8IiXZmPL5qJXwYf6o/eauSFhausgP8A1L7Ct9v3F4PaJBjpVjwxyZuxOaxtmozOgbE9OYr+lE0KPJI0fIQJ8aZyyF32Zfk0xYnvAP5mVCyh8lJv/wBVOD+LqXLbliaZgbmldG6zmJc8xITM6Bh/esRziAuIRTSMqLnrfQOLxzKdjermUA3+EMorLx/xheIF4FEfqoja/bJSwPrMq4oro7X6x0pmZ48HYGviacCo0rQQysuDnLxSv3Q5Zxa/xKFToOzab4oRokM6vtlpvJ+ZfS0xaHn0ia0qRZedxjhXlmduw3EOAAc3YNOLFPiLhTFIrWUVPiG0wqXJpIjIKxojr/ZlIYTmBE6LcTzKzDEWGUIzmZRQWTLPENGIodQ1/bcuaMaZQRiW9dDL6ajLzCG+i9+ZVy5Gc+alGNeCXg4zVkTEUgWslV7VL4FRsWq5mLtrFbriNPLgrkBc+sBai55FvIucwJmQbKwnbcEXK2R2yv6js8ISgNmeYh1noWVhPRNVMe3sZwLuVpWPxNSZRRuCaxsvl/8ACW975sVcDDdMTcsVKCxbziiBQDbGeGFJiV4lYxK7y5eY10ZUqVDKBOxLN6gDZMLuXa3USjcBkYgvUP7WpRi4Vq3ESApctLLMkMkMPWyI3AjiXCJUylG2oi5DxrC/Mud2vklH60EOBCE9Yhja3Auk3ocK/dy7Klm53EsCoBitfglvbSnmmvSAXtb/AISvKyui4EHHMRLgJVS1DNYOCOlQrTU4E0x8RQQOWjw8VEXIFxBWbq7amVUBQ7pp00PeOQavxC+z0dMIyoy7IdAxCCVbAAzgQOUA1cEFQw6h/cUi0YGDicaWscOi5ly5cGXFjoRLlTVTyUIFrb8se0sIxLLzZAqY5fGTMsGWW3iYlFcEQjoXoNxhewI4Y5c9ZbZRdTi2Gxl4NoebFPS5lnjzgBn3Kr3nhSQARbSzH/h4feaGiN3Qls8Q9KjAuAxQYNVYduSFnqygqaavz3PmX5jmGD1OhroDmDQsVdQLSYmIbwhHSVMv7VxGsXFEXB95bzMlxcy8S3S5cV7hB8xZfU4L347zNQEOD/uiOM5RZP6CHrQI4ulrPoSngptHtPcuOg8ousRjf0sljBomljFRhu5/4I1Ox0hgNqCdsBhD1PmOQqttjV3d1BKFMkqd/MPR5/yu3RfxPeRIO/bghlvMRTgzA03RrPVFLwqm32VgmgEgyvoUueIkHgrDJf8AnRrM9PWDGcQZuF3DUuoShLIRuEFjEkIwP7VjEbmWvFhk6gjqZh0wiy+i4iGaxvmIQp3+o2viCyo+uCnZKIAPEC+aZZtXCcCy/gjblNoWF7nvAQ5CAaL+dywt2qi+NxIqwV8wTdcBjmWPkIPmiW+2dGJcwAFZcyHYxCancB5O/rOb+jI/tEflW9vu/TxG953nmK73MYXbB/nlfg5faIGFdh5aFqc3HCWugM72xG1l9xvibBRTk1XfosjqbgZ6GoIkylaQXUKvMAqASUf2sNkuuLaIv8IOjHfS5cxMTENSthdcvMTH6g/6ht9JbsIYZVR9agfnEQJaXui+ZQXAdNDf+kqIpduKG/uZtpE9HEIZ8C0YC/xCxGgPELnTtruu0omVQaNBdShprYHvty+0uEPVjkeIDYyiZsp9O82Sgxvc5e5nGI5Q8p6FQ93lwaDX3LGtkX5ZYdL05lNBNylfeYLbW3L28kfjg5UJlOzKwLNyul+ijnUffqTnoalhL6Box4d4W40akP7maSIUCKcRDiMQZnCDL6EZcuDDMEMgulaHtK0Mz+ew/sj5E8sWGPU0epO/cE94Ctj7gFAPymJq5gwZX9xGFWMNTg5Q7v8A9hNuqLJf6hNGs7UWkwyw99Mt3Xu7ajKtRYNr2O8s6LExXvp8ZiAEumD2Dgl1uUG2u9j/AOQwRhPIrMzocMy2g86IoLkhgFr2EA1XB3LWmIayZlmQWSh5L9qlJtb5sqEdQK6EvHTecyyqgYZcwCUf3pExDyh6SniEkJN4kr+FSokwITIYZCsCiyOy8RykI8YYZYF1kxCBI6LpXUfcrxKATYLfe2Svtlpo+3hxBWlzKxXH4mH8hm6pg1jNSo2378Vaxpymh7wkd2l9FjVzmu7z57RzZy94bn+ila+0icQCoAw2n6mboqtEgPvUoEFDADBL3LbDWT3g2smEynmYTh4OzFlkKwwcKEpA9B8MWMZE31Nx4muhiBcDZHQuIEqof3LUKAPMoZSVKqIu5bHmXdRhKevEsvcvB3dEG8G/PE4hbLVNCmj5qV5x+xRPqjtNgcXmv7lm+TKsRnJDZ6JZ7wskeoT5rs7hrJ5Wn7J6Rkbo1Qqln/1SnuQ9AenrCUXYtex58Qg8Gc+U7pb7xbWwcJFa9uoM/qhH9R0GGXoa/AQCxcryBdfcuxYLf1BxbdUYGjXlBZ6yoFjOt8h/EyiYX+Dn0ZQpiiCs+B+JSrHDkO0vosHMR6e0VQwZqFTJMu5cf3sXiMnMuf8AuIj2i1FZeIkSBN9Nx4InIjlgWCnhlUPYdso1ae0E3V0D3OGBG0AOPVwDoKcAKD4lHEG1Mj8KCJomYZkO4Agv3K182/TqY44l7QO3dPVmXcwGQDoeEJSqJUePXtXeIWzsRr9R6RclpeO7v0eZdTaHeIAIjIrYPJxY4fEarCPaFT9wtd1PxGwmJvhjaHPCGUu20WmvsidSKpbDFvvA3U20Ti7ikhYz+l0s7AxEWoFPqV095UIXBLIIEy4iAxHihL/tegS9NQVcG5zGCBvowI9Hk95dYIq4gD3IAxBKtesIadRK62te1bgUBVIU4fIw288ykHtLEp5+3gmT0jE6NusmH3FYzYH4SoQAudV3fBKsnLGiddYtPiEiBUKA1X0TBCWi9IfvxLbQLW+1wrl7zJgPBg9jiWRBA2xLtADCQkeNSypUsw3a/bE7KkNWT/ZdgZBY+KuMNplCNo9ao6zJjNXR9QjraB5IL8RkghRo0I+0Iyj02gfZHtESGS20ivrpUIEIuKaTxSoWRQKwLriKyD/YxVCi5UbmZUzSvEUO8FlwlzcqUcykvBNUaflFiWc2g4X9RBywwjoEZfFOyovC5s8xRU3yVKF6p9xU1VbC95MwJbYXZRD8xAua6u78TEW9aEql+wQWh4pTyL3lXhgO1yngwzPRlkWf/nMsvzmNnefzKfBayGXKT3b9QgA3j9RHqW9jBefJMV4MumiT0seXcRy2IXEzlgPsVCI4DcQJWQbC8su4fgVbvvuUdr90CVPci4UN3BHPxUKUiBpQt+CEl6sE9jp7TQ13x5lwLlvEt0cweGUMdYhRcqDvHBBz/Y7lbzADce1RUszdCumeg4mYYep3QMCySI/XvKjOZXHgV6kHpMGlA8d4nIqQbHZO7PUvmudwp1w1AmUO5aUnmHorjRdbgvtxuWqehbOebSr1Lb2ubBcKZV/R39IrptOSj2giUVeNZwe0ulqWOO8sdu0GozwMtzyub8TsaVWnxLBT5FqfLK9cN4kA6sAL4uMBsbBWHd34jJc+3Nqf3GRp8QaearnWGUjEs7P3US0J5aPVzd4nE3nbCDHp9wRoI8CsqDvN5fo2HpmKSdsno66GNy4y5fQJYwjXuVBTMJFZf9i0ym4S6YJu4CmPcdn8eJcsgkWYK9h/6gE0ErFQfJWX1zGJb3r/AGVRLxcJ2lDz8yLLw8VdS1As52Uiq7r9wiG2C1RrsJVUIWHPB/EBZi13yb/UZ8EDkBr5Z+ZQHshRyZ3BDLDFoYibhexIXBBKd+xCmId5QWM99R3PYcjMaaqtZfgzLeG5AIyPtATnRbGy6OKhwgVTpy484hthI77DXrHuEHa0FejEa8WCD6nmF+qbsxD4l9gQLugD6CGYkpqVHoddhM8yEaQh/VrKFmyJUbx/jcIkSVRDUAvJv/JZjfq5oQeHCHBVAHpUD35DgzJZINbgqY7HcIMWjdaykqIofioD7mV1b1irl9gZeLrvDDzIh7CwbZjI/eZuoYFZ75EcCXV7YbBRFTxgxK2DSZfMDVYs095kzH0vDtYL8XKldO4BQ7BUFgF3mT0FZ95eDfIxW1fcpBKRs/L8Qi+ulftI4NvQV9TFQezsnaYCF0FjOfb6H99BqMGJepU56DTCk2GYoNf2aM5TJSbV09Or6wW4Q6MvotOH18TRwRHJfBfxCcqsB3ziOZCZRYekYecLmFStBQecQFAuWt1ZGoZLU0awjgZkTS5tOwX8EIiFAGQAuolgyzKZJZtzO1DMtXK/EAIuAbYvalUBGuIV/RYLnEMuNFVHuu3bNTPFoCWKsT0gb8DFmJVCq7SBb4X+UEowDx7jmBRb0LD1WZZBwGrPFwlOoVT1QLibRO4ztKzcBrVmeQD9S+0HBGVDEmbEEsIcysxiYAYlR/rYSy5kdrDmO+mOiEroR68T5cbrKPmUNEXdlB8oXVS2mmXb2kdxcc8lgYO+QeSOQ4kH3H8kAc2Kr7m2gAw+fFmaLV/iA7SqBnxDr388TGCVHZXEDai8alQMyn3oxZk90qPsV0YXNSqHdhL+pll+pRyt9YYsvgEoKBxCpE5oW+GMI5M5PZ8mT0CXsShxcuRVjyC/zoZS4RRmbBnpggQIRRDBX9axM9MWbmaLEd9To9Ll9XUymXu6i/oYDsTL0IPWQ6SbfHmMAF6S4sduIrGgx4GDPH6gK9ToWAbF7wEbTNXS/MVcE8O4TSGYH8FqLTTh5HiKa0rMe5r5GVBTRmfZbL8UkuANmXaKW+NjyjlhvZPBMRCco7Q+ziFGqrnO+mrKGABPhC7Ez5rRZ4ipCV+Fs+69oJvUDpcu47lzDUw1MURMP6mLUVJlsw6FROj0YsvodNyh14UMl/cYH2sMRG4LBaIIJ/4+Y6ys20xfob9o6RSosL2X6yvQFFYjZ+ZVRCaMZKJy2Yfo4lNIbKk9or1Ll30LjG9SyXcsbXd5gaRUoF5Qqh6uIR9AxOb7J28Smyh+eMj6RCAIDhGGr7RUt0Ar0agkNbDW9IZi5Cn/ALzG3QYLti+3Z5jpNJnIaX6j30FV24IeBUU+WHYfodSr+weW0v2slGLKLu1avy9IZ6OpuBAxFmKMiogXAKcQDrof0VMT0hKnKa3Ho/wY9AxCXiGIV1vbdKYfmC9jEug4Q96qPKcmwxKCwNxcUR6Fgeqy/wCKzFdcUZ8y9elpecrcRri5+L9S+FeUhHuEA0kqyIZMC4OFjcvgXClrDDt2cRyUtEeoiFyIJ8XLIHLIMMLLIxg0gORcXn5iuUxNKKB9kloRNJbeLcy7h1lQAUffHzEDMlicUXZrzuIGZzBr3hnMk/OYVzDXmkZObyjY8QscbfA5hBbCtCav0xKm7KRtGR5qF2XdYfeDqdJDoyqcdCLjiXswOBlVBxO+JS/pWIIvQMeJpUtUwmUvo9EgdHMpgMDD3dPaGgqxbLThI56NiVB25h27xaxfS4XCOKIKLkDkWj9wbGuKjEN7xUclE47Vd+Yco+6urhtk+GbWehg1lxFZjaEUPePCQZLseBiRQ8VsfUAwDenD9wXrGzdWj3hsV/MojkbhlptwK3iFKAbaP+CSoreAaY13lkLb8W1r8RmZEuxRl8hATMqLmGroW7ZzJTdROYpbUXONEFBtgZXejcrYBDYpbHsZeZYHABzd585heeYJtGozkjEm0mkyiWO8vcYi+sx2XD+VwSCvMzuYrWME3hL6P8KhASoEBhfeBXTLHL/9gOBxGrcGWSw1pfhDcYgbTJEG1Ae1w0/I3qWWxfMIhU8ZnDs3YQtzmhBfEqOXlg+oeA4Ld+NzNVRUyChfzGGihXgcRBqrdhbjTRKNxmE0LgWhxq4Mk6mvCAA5XtES0Id6ZfDHpzEWg53BpDq9r2sxccT4Bd6adokLCjRcekFp3S3nv1NpZcYqejO4OZRNoRlGBG4x0z+VRiMnCPSDG2tjqOowcypUOmpUrxAjkqDXQ6XHKCQ2B3xN6EI4sM/ZLCTRyUkv9zH9vVuWGVB4Fq/EwlfZJeVziWb/ABKMNQrFzKmjkn56XfjG+wfzUZBhm2VCDjtLi67aRlr3ihpmZVxruXy6MLBi6DYDBVXfFnMr3je8Fs89DndQF/rDan2XzK+E4qz1VtzEVba92MJx0HR1L6DXUbmp01guHRNQgUS/4XGZLOCPvKqjuMdTeG4So4l56cXEISjpmL3jF3LhLgd0wt+9RB6ODZUgPvChkBRxmGOg4UBRArCMRk8XMm3lfzBUzlu5HjoLeMcRmIvd9PeWXpwI7xMxbTsRyW2QwnAfOaFae9Qn2ZI85PiDjI7QCuSB0y6wg5+IARqUT1rMGI5CJQyeDV+0JZ82yj3nPFE2T+kCJCKlV1VvqQhiPc4zV26Qqg6ly4dFilDUOZzATTMGGLXLFKjFxMmYSpcXMIalliM5lziXGLF6JfKYbqZTiHaaYj1HNwcXdjcaxLXhSS1A9lqWIvgypRY33jh9GyvEQlKYdXRGH/LyrRXeAmcylFpXNVULDWFqvvUXQ45m3VjDDiTLdni4Y/XT+0535cr8MWTuyInnSQSw442e5cGW24ANcHiM7VOyC8BnICNwFjRSxUr8vRUOl9KjuMCB0E5zjFVQuRqYyptgHUtg9LlZm+ZW3BLIssDMzxLjFzDMVS47gwcb6SzmMXEuFmL9y7KIKB5ihclPeKYzFaMslvYdEsGgL+WXzQO7GepbWBLzbFTB9xihXbGZMvWCOShagi1jWAQL9yiHlc2DxyvMVgqNhDFHcEMczk2P0RoNqcu8u3tSXN1tN1ntLYBB2eEmEZ41BcElFOM+YrtoBYXJ9sohSZHMKccMWI4SPay6yvgXwW9BqDUuzoJFj0Oeq44tTaVZwqNRWPNHWsygS46CFcsGIrCwm0gzOIrNosRW5cuXLmkHEzGKxgpoth6QbO6LoiYHIoI7phrEBmxoVHY/+qFRExXGUKR01DT7gBKGAAJki7YlmYatThDCnj1icw9ehe5iJ4oO0Hbi4vnSGCxRC9d2ZzjV7NqPjQjKWTbHlOA0avUujTfaCxyKVg2xHH2Qo7WsXj5hcktrBxUoTVIjXiHxLMMXVP6jeNxDwP0Ropp7IOP8iUhlkGu8JWhfRdrPyS1fDh7kHGGb56B0qJ1HM4l1CMs4MrR3BFstl+I9lsVw1MwiRRxk6BnMrozaMTPTbpmWjr+DHq7TtKhgVXHgAL7ZjOIKFHHk4IyrAdAqLwhq2WWJcYvv0xmjguWvmDxluw7RAwCvEOlGYlgFMO7QTA7KhX+8fBAbbi1js1uDQ0iqggCnJZnGpWOBrKrCjlRbMHgMDRaSacBb5mJW2yKWGCBDXaErw+AjlTPbiD7QUOV2TiLtNoW6v1Nn27V2YgaXm1r7u0AG7W7tVxhKCbaV2PtHfKi5cw9JiOYInR1GVmckNRhibx1ArEU3ZYyMtRCiDEIxnMxMdg7jVzFzCzLixYio7lwK30BLDUXoszL2YA1VhXBCy6iVRch24/EsbZ4viAMbKbmm4Mii+vXMLJTTRVn9R+JmLCObZxAdyCd5ZjsygCtDzLLvjzCkWgH7iS1KpMTKxsgR+WtbEeStoVARG8NNeIB1W+x1u52XxOKSCZB1y2Q3vpFYJRpyTONYoqsmvG/aN9XKCrWPpK2by95VsViKt7xNjFCo1x8ylZyy1U0PaJz2kjmLkhFm2YpeIxerqDBcGYeIhhVTEzCqJTzFMNTsOlwS0li6MTaG5sixlSpUSBFqX0dRYsFCyftVnvLkQ0ub2zPiwm4uLHC9nl3BUKiRAcYxlioR7m24D7IfwDcmHIH3G3GNoixiHgJ51rii9K45eIWrTQblIXJchsI2Km3kB8RmMna4Y6mtQ7DuWtS8yjHhlLKlHC4OnBLVbFKxS81lXcQKUbG1kv3NNDn+ved4Z7pDHtANlIKXh76qAItxjGIwJEN0zo7wgOg5G2VmGmBccHRlZnM4jsgdAUxS20K5xKAYEBKlQWS1qUXL7YEbOlx3GMIxzAldPee9xjDn1qLsI1VrVhjeJShASG/atd1lK9p1VNRoLO6B0B7Mrw0HlZf1cq4jLtV37/mEgJ5znB7vDSqmbLRLNT8LcHw78vX5gwgpwLX5l8hFb1+YiEI2479xFsYRIDoZUghYoOLlJFC3XuKeIWTznnt8octxRaBGgvjUrHiW+EO8PUIpyYlziw8zESGTgcXC2rFdFtQFFrCxG+cz2qG4XUGotRcz3lzEG4ZSUEsgauEl3KOIgi6rl1ZmZ/AEuFgpTN8TGHWJyRjuUVAqLMQOlSsyujNKkrlwKlSsd+cysKVoODx2uBAT0WgH8RwkhRNp7wHsAx/P8VKxX6wf4I9aKBPm5nPYhLWB+D8YZGtB1QtfiNSF+MgxRQV1pHB+gEtE3BUWRxwMMS5MllkuCy5aLEhyFC8ErYcSvNEjuLBLmZYAIM+sq888x34gQizPQaj1OLhBuKJUBKtNUNJNYdWOsMKrjXggtjVR46N3LHpfQbl9HfRjKlSpxfmoWVrbzkPzcTepSDpQ4hKqYoY40dK2r8W2XkikHxCmHXJW6RgpsaLQuEDGBRkPZjlXGrgtWS1p5lxgm7OY+YDsmQq2F3TBVBAFpxCGFIX7lV4Kjtczpro9DoZcuDmXmaw1HKjtA4IHCEBXENGf4MVMxZhwCsqzF6O53/hdMMkITDHE5h1oTemX4lhhB9rdPaYhXEUGjFS9wRScwBzLTW0+s2YMan1TkWwS0+YwdjPYVVi4qoqHeg7NfuY1PAMniFVYLzXHtEGWpeSAVDLcfEIjsjiRWgKCHxFuhbsME6I9SfxBnDosvpcWLLly4OY5xPOLBJgDAYDpfVnOOva5X0NhFLnEfEz0dRjyQZbDDHMovoRnYEd7DLr0b+aAPKdkdNCwwesdqd5IOMx7a5wAfiAdjl3AJlkpDcTLC7hvgk9KFbO2otqIXgKfiVC0V4cWuIkSU+neSBQ7DZ4lLDKWhiMH6gLGuIVe4g673KrBBQbozXzGmtb6UP1BDXTlCMejH+DaHTm+I7EoAQzL1BGIdWVXENylzCPR6MOpxiAOJ7/wSVDobmx+1lfuKJKS/v8AuUTDW4G/35gAwUz3mDQRFvG5cqOCw3a+RDLc8KfmU6r7sqn8iEbxIuCp8sBE4TdG2XuGQUFRWEUEYmpTxHO+Zr0jJXe6l9NMXlc/jqZpLrou+pJUquisvoIIYQZRxKgIyhrqqZXcRuoSy19WPS6613j0Eb63CcRqSs++VT2GHOD4Z0H6hVzGLVDXUU7qzcRTfe9g+YADads/oJTOoB5x98JqQv3AOXyQhDIV5JvxDXHXiYS4MHMRTG+I2Yvd8iGO0Gn3JiDW45jMtSoOmUpuVEuAm4bYYgkWZmhILUePrKSwepl0xgFhB5jKjGd+t56PQcQ3K6k4hJHxghX7iqGpd91BAprtKYcTJ1a4hUACu4Fn3UNa1nlfEITD/wCtnMvGHUGTKfiDgRPHI+yF3S8X/KxUd5lWNb0TvjB2CX6IFBTA+QnrFi9K6GzoETM1mGYKalQ3DbBxU2g2VAGM8/wZly1QibwwXfqnTTpuVUXEVuDiaf4KhHUbhHJ4SLJlAXR3SHdRW6iuBmPjoyqtpDNncdNOfVf6gPmTJ5Sv3KlLvzUQGuMMk4+Y/KF/xfuOijMtM5lKYYWzB+8C1Mr1Q/U3KlSo9KlQjmJiE5hlc3KgZgWd+MOyCoDLhzjoSpMNXMvcTKtuXUuLFzExKhEjNugXmbfwOnKU/wBZp+nvaZfYuaoUHjGoLJn68z0i0QPdcZRXhTksZlKUBQ9Cv1KpTpoyxOrO4B+YtXAGOJRwXfZKljikulvTObLVXRKllphszc3dAQYCm6zHRZ7nqlxavoD0YZgTUuGVmsxMS5dahqbSsXaOymVpcUE4lD9Iwh7xKok1LixnMJxCMYMyoMHTcrPQFRMShwp92jECp9SGRXqWMu8d5KPYqNiV4Q8xgZUqhLQYZQ3JUwFqUnsJZy3J75l2FbmwbB4taPTg73u0WICoqw7yilmSa7Aapj+3KMDycS885zS3NszBRa0H3KrLdHkuoRu4mIBWQKS59+IsLax6povHB1F6MITjoYg4iuZmYQMTmU7iU3AZeyKjcMJxHpDB3MItw3Hpz0VKjGLCGuhK1KxCXWe0fEjnwWfiJeUitFLBPVv2hVCyL6D5qWx468xcPNIIPeHZQGL+5yMduYNusSXhu83A5e69RNQwi1xLyNH5Id0LYykAPOAmdBt2GuH4NbqIYSAx4Q5fMyxbxWogWBxfaE1IWxoJaecQgERtqxcItFOq5QqWbQy9/KWHFxmxj1Myz5UWC4hCJiJUOrqE49brouKDHVTNJUyZQxKpLlzFd4mz/BXU30SJEqV0IdKVLxHiaUQLRZ5yor3piFgoApF/gWALQix5S/rU5LqXkNdVydFVFNDSgVtvbKVFOClcYwEv6OLATFwvLAFDcgFF16x53CKaPYPEBQ0JaviaJmEeTWmG5SQBeGYLmdvC+JeIdp8l5D5p7RrjJ0EGDMOr046DF6CBQULCwKMoKj2ioxC8zNuN1ZGV0IkDH8WJcDE5hHUyIbi5PaMRa97J+kyKXAZ+WBaU02lCIAWig0X2ggxtm4JmGunrFoCg7DuQxq/ceyUmMQGZxtzGWtreoCNRyxJuL2/cY3RUsFGfeCEwFCiHTIMsCoab5KjG0MR+pfxx3BwXzj7mRR2Q30eYl6grpiY6HQjHpabLg4jlCKwZWQhQ7RXiOFEw31YPXPSm4MT3miU30ddFwlnNRpzZgQlWzFgUF8EziquvfzKCWWENVFJDEfid3tHpdQBp22te8fCXWtnEHnF35iVbvov/AEIizOj0tisA4k3uppPeMdPV8Eh9BGqjS/GBcyuj0ud556tilQeTiWCj9c2ryyGpQkJjWd/dwfxfQhQixZnoQ6al1uX0YNbilZnoqBKqKgITcGnE8UEOjuHU1BlzfMqJ1amjpgwcmXeyV88HQoU74+4rJeMZhRplvXeAAyr5N/F/Urtrq1m9RJwFBwxvaLmXppDxnB+Y5A/+mZdw77dHgiYgOIpWNeVdSulBtNmn0ltQcdNQ3SlFUyPEGuah3oJxtRCW1iJcl0PowodNy4ZlfwHXROiSoZa6IpISn3QazGqUrLZHUFDOcP4GpuGJcegZVxInQiiAGYsWMwcP82fkRKbCgPRBJsqGTjHaDBRAro5i6S6iCt8m+8sN1x2p/wAy24dBb92UCfW4jg88ttq/F/UMbjXiF5213IOaaLO0xyX5JTUBouGezxD8gYYvGIcxgDeXPklBuOvpGKADtKuJEmDiFyup0O5z0EDMzIOL7zaRQNw4mFSIsWunRCfMqcdHo6gwroxXQkOm0IawpCbwAe9pnnqjaxfpYjAbuj9ZRGU0/hU5uo4Aux9I7SgfZH+DKo7jGfmGpxKML9/czjFjFQDXMIjCXVZzrHvDjQLzwRGwNC4fW0G7cLbXlzMPVGrcw2XzqFDFVh5LhPFoaw5mbBQVbWv0P7lVoRtuC+2Eyp037zSViJE6czKLlN9CaiZldoYcw5mW4ioaegBU8oAxEFQgw3AZbcNQZcu+idFBixCZiRhIRTlqFa1eXYqx2tIQiBsfU9sRvhMazoqWFR5S8cznc/HeXnLXOZYliV3mLWllSgUaJzqw98S+jl7ZnHTGxyQFEsWFqie5DHCG+Bhb41L8+5OTk8woYVTQRBwr/wCxLMLz5iNLL2ih9+I+QTQZt4eY905C4SKC+9Nm3Vy2IFeaItJqa9TEgd5qKhkm0VSxgxz1rKh3BysLG+pGmE3hjrUpsjFwyidWMTMNwgcTTpt1pg+i4EeiCzabB3EphsWqoofiGAA5JfO4S0C07ntUe+scS+HEuKQZts7RXHpw9pU0f3kUkHYAnpHN2eXb/wCyjQ3zxi+1QgdotcXMQMytFY5jNgM+eF/EARe4UcrgXGphMVKvzFSrsFAO8p2LIsATdvMACcXdkSiPARp7EV7wAodCcJBUhU7pq4hILSqfuKXKlRlyyOYQK6AomKnboOVjixXChroxiMtUvFqUriVMEodzDwlKi5iw6HUNzSMXMcS1XzdFcc5jGVcE1arpXXvBfOsgcuHLd9swZdXRMO52Y4N1uwvkqWNHQNKDiY5XhS1L9bK636QoY4lk6QvI8viXtwDYZjD+B+ZcfERQ9splqyWbTXMadPZAOAOhM1jfjcxlMexLX8R9sOAhSzEIX3zAJdfiMVnQDqLcWRhNGX4hDmjtWaJcddUrVn3ElMSDvcggBq8qWzggidKzDHUrtUcdosUFCPCbPTo71Ax1SVBiUyJF3iDbUy6lLqUxkZlQl4zAxc0JTLwdacNtZwb94YC0SO9izhf9lY8CZNV50TAwwwAZct6yQwtZFbyrjmXE54HweY0MJyEHzOP2UGZSwE7YJeqX3LhuUMoD5lRBeRo+jzKzGAuCdV7pdQWDZ3cajZjMFRtPvEzqumtxVilbC/2DRCRWhsGi9Ev3jk2YFoqcV3hDlLCqjzMEo27TvDtCk0rXDr6jBrQcLT9TA0Bu6fqD98u6YCREaPFLwnfxMahcBBLC8SqoYbD4hhMkSHmNtQ7oIhvyPUiPXU4ZtR4/KKpqq4txGfAWfOIR36yO4cxCPhwE7eeczOdwdtdzg9ptqBZLPOFSw1YpyTYDLZ7xHzMkqvXeTpZ2QDR/GoMy1xU33LnBHyicxLEQj4IpxL3VD6RDiUhNMcQ/Q92WJhHb/sBICjMDIwNDn6lNn+CqiF86SwhtBrl5N6gMD2VbLdckFAGCvB47QOmKwjfO0I1JZCp9xPifELx6yw2mxgfmA10RpWUO3mISG2gecZMxsJgQqeB/sfiHJjXcS5rYqH8FSiqR/LGuGNKrHvnUsvY+TM18FImlHmhGL7WsRvDyoRLNYVGGmn4qAEUVFWvQ50VzU19iY/kU+0ZJ2qDvdwqDlg7EGkh5FfvbEMdfdtajnSbmHo94KlA4QSms53HijIXCgF6wZjtbly52wCNVjEfgmL6B4Fd+JcwEoGeC9svoUFF7208wzsgKCczGWCyhM9mO16OQue5UvYt+hNmjJ4mXnyPGxhp+Y0cnDatLXHtKQWW0xPuIyBHvyu3mKpaWp4XURm32qw4C+0E3oAFN5Ib1Kr+SRCXXE3mU6qMVH3AJi8OvzM978X/sqzqMWHpuOA3aEnNXsS8qAOyeGCJA8VDYGKYFAw0hZSgwrYjh4jrW+kbGftY7bi40wNAFCkHGfHaDGbaGjmcRza4rFPxLvkWPmLwTYBbWhy1+owQrAEPeNBkpCaKb7eI8RaVREc+40eJRqQMA8VmLAaVjxCuVfKD8w7CPD/tKQorUgnAO0nqE1+McteZoNzDAArwlSoPMFpu9Ra57AHSiFcYjqVmQK3elhNBYhxxGopxYf+zLNOix3gwKgLGbHcGq9yMFbrtNtufxNzAFwsXi2Dyi3j2SE44kR+Y+ji6oX+Yy3/8ALvLdW9j7iMk7f/qGFVGsf7HToHgO3lqx+4hA4QjgzYeES2x1lQZWCntNLriTQ4LzuVo4OiPZPIHqOJYJAZNPUMuiimTvsxLdnDq2Roz6MEuYj2KNEV3YCrQlA5XAO6/nM5BovMyYY2DTgSxvjvKdv6alRJUKRVweILk8BiO5Vne0dhpw1japwe0ujlM3ME+3jMEpA7gzTWejKAoejB2SPT9S2FoDlZegWuheqmeOeTt4jVsMIjs7uOR9QHB7RFvuG4M03EtolnUqFaeYV7R5B6RkTI5gJSkepfHynwlAUhwqMLOKmZnBHA8cb4uIClovPcr537x+QWRw20QJQgmiYCqV6ZdvOJU2dDVVGDWYF5WofMQnTjExUvo63yuUbLRF48mOSoaC6oZB2cQqmfT/AIhVU+F+ZZrvzBQNHpC8UA7yrytCSJ6i0VnsjFi7FC0KOOGy+eIk3bmEsivD8SGvC+PVmLcOKliAY6E2X3blr8mtHFDdYlzbTdMIXpRaYX7ultIlxrPmPQiLZOgnaVzbODnHjAx8YlkVSeXb9SrSZ2Icx9SU/sdR1j4hcwx7uZcoovFxblzYbtnIxNRh2pbA3Y52jSQ4BNCybY1MkAVYyQDEVg3GqBCDoOJuDc1LDD2XEuqIfF1A80fSoZizukFUCvEPwj3CYCwe7E12ooCX4ixCzdEOgnxgwBb7QogbYkMv+8UMqwDTqd56SEi+IPst8s95RPlwVUuHRbPV9yVIA8ur9oACxM27/cTLK3MY4EwGmcgOlygxbyq7bmaAndAgBg8Sziq9MSkotcUEPX2t94JKxKtu4o90RrMyMZ3i5ROola0ao+vMQLsCyW5LgxcUVTNS0oXYEVciMgvHAzXfiBDiqjW/PmHXJlYiwHGsynIoAGNnpREGehpVWytrqVbHL1ykNYZ3bcXRNp7javKXl22BHvSUyt0vcBphRl9FX/amSXw5qlzHlIdu786ipgGCRYKB5blSMBcANCeYyAsWVefMclPDALuGS2OhqzbNlt3DlcvmHQOYeIVAapAmz1gTc1lPlRCi9WAU9oc1spnMJsBPMFF5lBIKWmOHCNvFOLNQoJ4SLhQvhAIsgYgxq4dxUO6YCG9zA20XlgAAPiNqKDwwWFvLCgoLOh9eq4Yjna7cwq2AS+Iw5aQJU7znG1hgr2N3e4CJi3QBFdWpVOJeBo8fUuRMO5g3r3igFrxvgPERLDQ1/OHb8C9BZvS7Q1hi6fSr3YrOBS1r2GhhTWBYwVgr/YyGgcVEYFHjIgYFq2gz3lB255n/2Q==;" parent="1" vertex="1">
                    <mxGeometry x="510" y="266" width="270" height="270" as="geometry"/>
                </mxCell>
                <mxCell id="29" value="&lt;b&gt;&lt;font style=&quot;font-size: 18px;&quot; data-font-src=&quot;https://fonts.googleapis.com/css?family=robot&quot; face=&quot;robot&quot;&gt;Hmmmm, a lógica a falhar sinto.... Realmente o fluxograma reflete a lógica correta, ou isto uma ilusão sith é..???&lt;/font&gt;&lt;/b&gt;" style="shape=note;whiteSpace=wrap;html=1;backgroundOutline=1;fontColor=#000000;darkOpacity=0.05;fillColor=#FFF9B2;strokeColor=none;fillStyle=solid;direction=west;gradientDirection=north;gradientColor=#FFF2A1;shadow=1;size=20;pointerEvents=1;" parent="1" vertex="1">
                    <mxGeometry x="350" y="30" width="250" height="160" as="geometry"/>
                </mxCell>
            </root>
        </mxGraphModel>
    </diagram>
</mxfile>